<?xml version="1.0" encoding="utf-8"?>
<!-- Generator: Adobe Illustrator 14.0.0, SVG Export Plug-In . SVG Version: 6.00 Build 43363)  -->
<!DOCTYPE svg PUBLIC "-//W3C//DTD SVG 1.1//EN" "http://www.w3.org/Graphics/SVG/1.1/DTD/svg11.dtd">
<svg version="1.1" id="Layer_1" xmlns="http://www.w3.org/2000/svg" xmlns:xlink="http://www.w3.org/1999/xlink" x="0px" y="0px"
	 width="60px" height="60px" viewBox="0 0 60 60" enable-background="new 0 0 60 60" xml:space="preserve">
<path fill="#FFFFFF" stroke="#E0E0E0" stroke-width="2" d="M58.875,46.398c0,6.841-5.719,12.387-12.773,12.387H13.899
	c-7.055,0-12.774-5.546-12.774-12.387V13.602c0-6.841,5.719-12.387,12.774-12.387h32.202c7.055,0,12.773,5.546,12.773,12.387V46.398
	z"/>
<g>
	<path fill="#CC1A1A" d="M6.935,32.454c-1.154,0-2.117,0.951-2.117,2.124v5.769c0,1.174,0.963,2.124,2.117,2.124h2.149
		c0.16,0,0.289,0,0.418,0c1.347,0.032,2.502,1.205,6.127,2.061c3.625,0.824,9.271,0.729,9.271,0.729
		c3.625,0.158,3.497-3.328,3.497-3.328l0.16-6.34c0.225-3.646-0.706-4.756-1.669-5.104c-1.314-0.508-2.085-0.064-3.079,0.696
		c-0.994,0.792-2.438,0.92-2.245,0.063c0.063-0.38,0.417-0.476,0.802-0.444c0.545,0.032,1.187,0.096,1.443-0.063
		c0.257-0.191-0.225-1.078-1.347-1.363c-2.054-0.539-4.973-0.032-7.187,0.888c-1.283,0.538-2.438,1.046-3.304,1.458
		c-0.706,0.316-1.412,0.57-1.893,0.729H6.935L6.935,32.454z M7.544,37.209v-3.678h1.284v3.678H7.544L7.544,37.209z"/>
	<path fill="#CC1A1A" d="M50.499,42.471c0.097,0,0.257,0,0.416,0h2.15c1.154,0,2.117-0.95,2.117-2.124v-5.769
		c0-1.173-0.963-2.124-2.117-2.124h-3.144c-0.514-0.159-1.188-0.413-1.893-0.729c-0.899-0.412-2.021-0.92-3.336-1.458
		c-2.183-0.92-5.101-1.427-7.155-0.888c-1.122,0.285-1.604,1.172-1.347,1.363c0.257,0.158,0.897,0.095,1.443,0.063
		c0.385-0.031,0.738,0.064,0.802,0.444c0.161,0.824-1.282,0.729-2.245-0.063c-0.994-0.761-1.764-1.204-3.111-0.696
		c-0.931,0.348-1.86,1.457-1.636,5.104l0.159,6.34c0,0-0.127,3.486,3.497,3.328c0,0,5.646,0.095,9.271-0.729
		C47.997,43.676,49.152,42.503,50.499,42.471L50.499,42.471z M51.173,37.209v-3.678h1.283v3.678H51.173L51.173,37.209z"/>
	<path d="M22.141,51.062c-0.417,0.253-0.994,0.095-1.251-0.317s-0.097-0.982,0.32-1.236l5.102-3.012
		c0.128-0.095,0.288-0.126,0.449-0.126c0.32,0,0.609,0.158,0.802,0.444c0.257,0.411,0.096,0.95-0.321,1.204L22.141,51.062
		L22.141,51.062z"/>
	<path d="M37.507,51.062l-5.102-3.043c-0.416-0.254-0.577-0.793-0.288-1.204c0.161-0.286,0.449-0.444,0.77-0.444
		c0.161,0,0.32,0.031,0.449,0.126l5.101,3.012c0.417,0.254,0.578,0.824,0.321,1.236S37.924,51.314,37.507,51.062L37.507,51.062z"/>
	<path d="M30.064,46.37c0.48,0,0.897,0.411,0.897,0.888v8.369c0,0.475-0.417,0.887-0.897,0.887c-0.513,0-0.898-0.412-0.898-0.887
		v-8.369C29.166,46.781,29.552,46.37,30.064,46.37L30.064,46.37z"/>
</g>
<g>
	<polygon fill="#C0BEC2" points="26.128,26.983 21.799,24.819 17.562,27.16 18.281,22.374 14.746,19.067 19.521,18.272 
		21.573,13.889 23.804,18.184 28.607,18.781 25.212,22.23 	"/>
	<polygon fill="#C0BEC2" points="42.77,26.988 38.441,24.821 34.202,27.158 34.925,22.372 31.392,19.063 36.168,18.272 
		38.223,13.89 40.45,18.187 45.254,18.788 41.855,22.234 	"/>
</g>
</svg>
