<?xml version="1.0" encoding="utf-8"?>
<!-- Generator: Adobe Illustrator 14.0.0, SVG Export Plug-In . SVG Version: 6.00 Build 43363)  -->
<!DOCTYPE svg PUBLIC "-//W3C//DTD SVG 1.1//EN" "http://www.w3.org/Graphics/SVG/1.1/DTD/svg11.dtd">
<svg version="1.1" id="Layer_1" xmlns="http://www.w3.org/2000/svg" xmlns:xlink="http://www.w3.org/1999/xlink" x="0px" y="0px"
	 width="120px" height="120px" viewBox="0 0 120 120" enable-background="new 0 0 120 120" xml:space="preserve">
<rect x="37.265" y="46.979" width="24.692" height="4.315"/>
<path d="M112.373,1.287H15.986c-3.097,0-5.558,2.465-5.558,5.472v32.593c0,3.004,2.461,5.394,5.558,5.394h62.802
	c4.288,0,7.781,3.466,7.781,7.628v20.65v22.885v22.806h25.804c3.095,0,5.557-2.465,5.557-5.472V6.758
	C117.93,3.752,115.468,1.287,112.373,1.287L112.373,1.287z M64.338,23.555c-3.414,0-6.273-1.85-7.622-4.624l-1.669,0.231
	c-0.157,0.077-0.236,0.077-0.395,0.077c-1.033,0-1.985-0.77-2.224-1.849c-0.16-1.156,0.634-2.311,1.826-2.466l1.588-0.309
	c0.317-4.237,3.969-7.628,8.495-7.628c4.684,0,8.496,3.698,8.496,8.321C72.834,19.857,69.021,23.555,64.338,23.555L64.338,23.555z"
	/>
<path d="M15.986,103.458c-3.097,0-5.558,2.467-5.558,5.47v4.314c0,3.007,2.461,5.472,5.558,5.472h68.359v-17.489
	c-1.428,1.385-3.413,2.233-5.558,2.233H15.986L15.986,103.458z"/>
<polygon points="53.779,62.929 58.384,62.929 58.7,62.158 59.495,60 64.179,60 64.179,53.452 35.041,53.452 35.041,60 52.429,60 
	53.38,62.158 "/>
<path d="M32.817,54.839L3.362,51.988c0,0-3.652,3.93-0.317,9.4l29.772-2.774V54.839L32.817,54.839z"/>
<path fill="#FF7800" d="M36.152,96.831c-5.398,0.386-8.972,1.003-8.972,1.773c0,1.155,10.003,2.158,22.23,2.158
	c12.227,0,22.231-1.003,22.231-2.158c0-0.771-3.572-1.388-8.97-1.773c2.459-1.85,4.205-4.16,5.477-6.857
	c9.844-0.385,5.919-0.247,13.178-4.807H27.181C30.273,93.403,29.014,87.461,36.152,96.831L36.152,96.831z"/>
<path d="M49.411,102.263c-5.925,0-11.552-0.231-15.846-0.653c-6.116-0.6-7.884-1.273-7.884-3.005c0-1.464,1.131-2.353,6.954-2.974
	c-6.954-7.713-6.954-20.393-6.954-29.079v-1.5h47.461v1.5c0,1.104,0,2.236-0.032,3.452c8.416,1.752,9.717,7.214,9.717,10.416
	c0,3.82-1.811,10.238-13.724,11.007c-0.819,1.576-1.779,2.972-2.897,4.206c5.808,0.62,6.937,1.51,6.937,2.972
	c0,1.731-1.769,2.405-7.884,3.005C60.963,102.031,55.335,102.263,49.411,102.263L49.411,102.263z M33.349,98.577
	c3.717,0.384,9.243,0.686,16.062,0.686c6.819,0,12.345-0.302,16.063-0.686c-0.831-0.086-1.794-0.17-2.908-0.25l-3.998-0.285
	l3.203-2.41c2.14-1.609,3.782-3.669,5.021-6.298l0.388-0.823l0.91-0.036c7.788-0.305,11.736-3.015,11.736-8.055
	c0-4.319-2.775-6.833-8.484-7.685l-1.339-0.199l0.063-1.354c0.051-1.101,0.067-2.135,0.073-3.131H28.682
	c0.022,9.018,0.448,21.607,8.373,27.581l3.195,2.409l-3.991,0.285C35.144,98.407,34.18,98.491,33.349,98.577L33.349,98.577z
	 M67.623,87.478l0.682-2.187c1.037-3.33,1.392-6.915,1.602-9.983l0.117-1.719l1.687,0.354c4.987,1.044,5.4,3.732,5.4,6.632
	c-0.098,3.353-0.69,5.94-7.211,6.654L67.623,87.478L67.623,87.478z M72.755,77.377c-0.182,2.07-0.462,4.295-0.97,6.512
	c2.243-0.551,2.271-1.489,2.326-3.358C74.11,78.903,74.11,77.997,72.755,77.377L72.755,77.377z"/>
</svg>
