<?xml version="1.0" encoding="utf-8"?>
<!-- Generator: Adobe Illustrator 14.0.0, SVG Export Plug-In . SVG Version: 6.00 Build 43363)  -->
<!DOCTYPE svg PUBLIC "-//W3C//DTD SVG 1.1//EN" "http://www.w3.org/Graphics/SVG/1.1/DTD/svg11.dtd">
<svg version="1.1" id="Layer_1" xmlns="http://www.w3.org/2000/svg" xmlns:xlink="http://www.w3.org/1999/xlink" x="0px" y="0px"
	 width="120px" height="120px" viewBox="0 0 120 120" enable-background="new 0 0 120 120" xml:space="preserve">
<rect x="37.265" y="46.979" width="24.692" height="4.315"/>
<path d="M112.373,1.287H15.986c-3.097,0-5.558,2.465-5.558,5.472v32.593c0,3.004,2.461,5.394,5.558,5.394h62.802
	c4.288,0,7.78,3.466,7.78,7.628v20.649v22.886v22.806h25.805c3.095,0,5.557-2.465,5.557-5.472V6.758
	C117.93,3.752,115.468,1.287,112.373,1.287L112.373,1.287z M64.338,23.555c-3.414,0-6.273-1.85-7.622-4.624l-1.669,0.231
	c-0.157,0.077-0.236,0.077-0.395,0.077c-1.033,0-1.985-0.77-2.224-1.849c-0.16-1.156,0.634-2.311,1.826-2.466l1.588-0.309
	c0.317-4.237,3.969-7.628,8.495-7.628c4.685,0,8.496,3.698,8.496,8.321C72.834,19.857,69.021,23.555,64.338,23.555L64.338,23.555z"
	/>
<path d="M15.986,103.458c-3.097,0-5.558,2.467-5.558,5.47v4.314c0,3.007,2.461,5.472,5.558,5.472h68.36v-17.489
	c-1.429,1.385-3.414,2.233-5.559,2.233H15.986L15.986,103.458z"/>
<polygon points="53.779,62.93 58.384,62.93 58.7,62.158 59.495,60 64.18,60 64.18,53.452 35.041,53.452 35.041,60 52.429,60 
	53.38,62.158 "/>
<path d="M32.817,54.839L3.362,51.988c0,0-3.652,3.93-0.317,9.401l29.772-2.775V54.839L32.817,54.839z"/>
<path fill="#E00000" d="M49.411,102.264c-5.925,0-11.552-0.232-15.846-0.654c-6.116-0.6-7.884-1.272-7.884-3.004
	c0-1.465,1.131-2.354,6.954-2.975c-6.954-7.713-6.954-20.393-6.954-29.078v-1.5h47.461v1.5c0,1.104,0,2.235-0.033,3.451
	c8.416,1.752,9.718,7.215,9.718,10.416c0,3.82-1.812,10.238-13.724,11.008c-0.819,1.575-1.779,2.971-2.897,4.205
	c5.808,0.62,6.937,1.51,6.937,2.973c0,1.73-1.769,2.404-7.884,3.004C60.963,102.031,55.335,102.264,49.411,102.264L49.411,102.264z
	 M33.349,98.577c3.717,0.384,9.243,0.687,16.062,0.687c6.819,0,12.345-0.303,16.063-0.687c-0.832-0.086-1.795-0.17-2.908-0.25
	l-3.999-0.285l3.204-2.41c2.14-1.608,3.781-3.669,5.021-6.298l0.388-0.822l0.91-0.037c7.788-0.305,11.736-3.015,11.736-8.055
	c0-4.318-2.775-6.833-8.484-7.686l-1.339-0.198l0.063-1.354c0.051-1.101,0.066-2.135,0.072-3.131H28.682
	c0.022,9.018,0.448,21.607,8.373,27.581l3.195,2.409l-3.991,0.285C35.144,98.406,34.18,98.491,33.349,98.577L33.349,98.577z
	 M67.623,87.479l0.682-2.188c1.037-3.33,1.393-6.915,1.603-9.982l0.116-1.72l1.688,0.354c4.986,1.043,5.4,3.731,5.4,6.632
	c-0.098,3.353-0.69,5.94-7.211,6.653L67.623,87.479L67.623,87.479z M72.755,77.377c-0.183,2.07-0.462,4.295-0.97,6.512
	c2.242-0.551,2.271-1.488,2.326-3.357C74.109,78.902,74.109,77.997,72.755,77.377L72.755,77.377z"/>
<line fill="#F5F5F5" stroke="#E00000" stroke-width="4" stroke-linecap="round" x1="6.73" y1="70.25" x2="23.25" y2="73.672"/>
<line fill="#F5F5F5" stroke="#E00000" stroke-width="4" stroke-linecap="round" x1="6.73" y1="88.51" x2="23.25" y2="85.088"/>
<line fill="#F5F5F5" stroke="#E00000" stroke-width="4" stroke-linecap="round" x1="6.56" y1="79.799" x2="23.42" y2="79.229"/>
</svg>
