<?xml version="1.0" encoding="utf-8"?>
<!-- Generator: Adobe Illustrator 14.0.0, SVG Export Plug-In . SVG Version: 6.00 Build 43363)  -->
<!DOCTYPE svg PUBLIC "-//W3C//DTD SVG 1.1//EN" "http://www.w3.org/Graphics/SVG/1.1/DTD/svg11.dtd">
<svg version="1.1" id="Layer_1" xmlns="http://www.w3.org/2000/svg" xmlns:xlink="http://www.w3.org/1999/xlink" x="0px" y="0px"
	 width="60px" height="60px" viewBox="0 0 60 60" enable-background="new 0 0 60 60" xml:space="preserve">
<path d="M47.261,54.936c-0.262-0.962-4.867-18.375-5.521-20.782c-0.606-2.362-2.26-2.975-4.083-2.975h-6.041V28.99
	c11.211-1.05,14.166-9.407,14.166-9.407H13.498c0,0,2.476,8.794,14.426,9.451v2.144h-5.562c-1.825,0-3.477,0.612-4.085,2.975
	c-0.651,2.407-5.257,19.82-5.561,20.782c-0.348,1.225-0.217,2.802,2.259,2.802h1.738v1.355h26.288v-1.355h2.043
	C47.52,57.737,47.65,56.16,47.261,54.936L47.261,54.936z M30.009,33.41c6.04,0,10.949,4.943,10.949,11.07
	c0,6.08-4.909,11.025-10.949,11.025c-6.04,0-10.95-4.945-10.95-11.025C19.059,38.354,23.969,33.41,30.009,33.41L30.009,33.41z"/>
<path d="M23.708,39.622l-1.129-0.831l-0.304,0.481l1.086,0.787C23.492,39.885,23.578,39.755,23.708,39.622L23.708,39.622z"/>
<path d="M26.793,37.128l-0.607-1.225l-0.522,0.219l0.651,1.27C26.49,37.304,26.62,37.216,26.793,37.128L26.793,37.128z"/>
<path d="M22.057,44.48c0-0.089,0-0.133,0-0.22h-1.39v0.568h1.434C22.101,44.698,22.057,44.61,22.057,44.48L22.057,44.48z"/>
<path d="M38.612,40.236l-0.261-0.481l-1.434,0.787c0.087,0.13,0.174,0.305,0.26,0.481L38.612,40.236L38.612,40.236z"/>
<path d="M35.268,36.517l-0.479-0.308l-0.78,1.357c0.129,0.087,0.346,0.175,0.477,0.263L35.268,36.517L35.268,36.517z"/>
<path d="M30.444,36.473v-1.444h-0.564v1.444c0.043,0,0.086-0.044,0.129-0.044C30.14,36.429,30.27,36.473,30.444,36.473
	L30.444,36.473z"/>
<path d="M34.615,52.968l-0.738-1.533c-0.176,0.089-0.349,0.177-0.521,0.264l0.738,1.532L34.615,52.968L34.615,52.968z"/>
<path d="M38.048,49.86l-1.392-1.006c-0.129,0.175-0.259,0.307-0.346,0.438l1.39,1.049L38.048,49.86L38.048,49.86z"/>
<path d="M37.961,44.48c0,0.13-0.045,0.218-0.045,0.349h1.696v-0.568h-1.651C37.961,44.348,37.961,44.392,37.961,44.48L37.961,44.48z
	"/>
<path d="M29.879,52.443v1.661h0.564v-1.661c-0.174,0-0.304,0.043-0.435,0.043C29.966,52.486,29.922,52.443,29.879,52.443
	L29.879,52.443z"/>
<path d="M22.97,48.155l-1.26,0.699l0.261,0.525l1.304-0.7C23.144,48.505,23.057,48.33,22.97,48.155L22.97,48.155z"/>
<path d="M26.315,51.523c-0.173-0.089-0.347-0.175-0.478-0.264l-0.825,1.314l0.521,0.305L26.315,51.523L26.315,51.523z"/>
<path d="M34.16,38.244l-0.409-0.301l-3.138,4.423c-0.127-0.054-0.209-0.104-0.34-0.115c-0.952-0.084-1.799,0.632-1.883,1.59
	c-0.088,1.001,0.62,1.856,1.572,1.939c0.952,0.084,1.801-0.632,1.889-1.635c0.046-0.522-0.172-1.025-0.529-1.407L34.16,38.244
	L34.16,38.244z M30.075,44.516c-0.303-0.027-0.5-0.262-0.474-0.569c0.024-0.26,0.303-0.457,0.561-0.434
	c0.26,0.022,0.458,0.261,0.435,0.522C30.569,44.342,30.333,44.538,30.075,44.516L30.075,44.516z"/>
<g>
	<path d="M15.102,17.43c0.235-0.566,1.027-0.918,1.908-0.809c1.003,0.126,1.744,0.802,1.655,1.508
		c-0.003,0.003-0.003,0.003-0.003,0.003c-0.292,0.101-0.984,0.229-1.839-0.324C16.037,17.301,15.44,17.334,15.102,17.43
		L15.102,17.43z M17.832,18.401c-0.324-0.041-0.706-0.162-1.115-0.427c-0.838-0.542-1.426-0.419-1.679-0.314
		c0,0.005-0.001,0.009-0.001,0.014c-0.089,0.707,0.651,1.383,1.65,1.508c0.892,0.112,1.691-0.249,1.92-0.826
		C18.418,18.405,18.151,18.441,17.832,18.401L17.832,18.401z M18.471,15.441c0.551,0.855,1.235,1.021,1.543,1.054
		c0.003-0.002,0.003-0.002,0.001-0.005c0.375-0.608-0.021-1.526-0.881-2.055c-0.756-0.463-1.624-0.47-2.074-0.05
		C17.408,14.436,17.965,14.654,18.471,15.441L18.471,15.441z M17.785,16.636c0.765,0.47,1.64,0.47,2.087,0.036
		c-0.193-0.034-0.451-0.108-0.725-0.28c-0.276-0.168-0.575-0.433-0.839-0.845c-0.542-0.838-1.126-0.969-1.398-0.979
		c-0.005,0.004-0.005,0.009-0.008,0.01C16.527,15.187,16.924,16.108,17.785,16.636L17.785,16.636z M20.684,18.105
		c1.021-0.017,1.521-0.514,1.71-0.759l-0.002-0.003c-0.322-0.634-1.313-0.782-2.213-0.325c-0.795,0.4-1.251,1.133-1.133,1.738
		C19.275,18.486,19.75,18.125,20.684,18.105L20.684,18.105z M22.469,17.562c-0.128,0.146-0.328,0.325-0.618,0.472
		c-0.291,0.146-0.672,0.258-1.164,0.269c-0.995,0.019-1.414,0.451-1.564,0.677c0.002,0.002,0.003,0.01,0.005,0.012
		c0.318,0.637,1.312,0.783,2.215,0.329C22.143,18.915,22.603,18.17,22.469,17.562L22.469,17.562z"/>
</g>
<g>
	<path d="M23.104,14.163c0.604-0.104,1.325,0.377,1.703,1.18c0.428,0.916,0.254,1.903-0.391,2.205
		c-0.006-0.001-0.006-0.001-0.006-0.001c-0.239-0.193-0.719-0.71-0.708-1.728C23.713,14.883,23.366,14.397,23.104,14.163
		L23.104,14.163z M23.742,16.988c-0.138-0.295-0.24-0.683-0.234-1.17c0.01-0.999-0.408-1.43-0.631-1.587
		c-0.005,0.002-0.009,0.003-0.013,0.006c-0.646,0.301-0.822,1.29-0.395,2.201c0.383,0.813,1.115,1.296,1.725,1.182
		C24.052,17.486,23.878,17.28,23.742,16.988L23.742,16.988z M26.586,15.949c-0.43,0.922-0.205,1.589-0.067,1.866
		c0.004,0.002,0.004,0.002,0.005-0.001c0.715-0.008,1.279-0.833,1.266-1.843c-0.011-0.887-0.469-1.625-1.064-1.781
		C26.868,14.512,26.98,15.101,26.586,15.949L26.586,15.949z M25.208,16.007c0.013,0.896,0.479,1.636,1.085,1.783
		c-0.075-0.181-0.149-0.439-0.15-0.762c-0.006-0.325,0.059-0.718,0.266-1.162c0.419-0.906,0.218-1.47,0.081-1.705
		c-0.006-0.002-0.011,0.001-0.013-0.001C25.762,14.168,25.195,14.996,25.208,16.007L25.208,16.007z M25.515,19.242
		c0.561,0.854,1.247,1.012,1.557,1.041l0.001-0.003c0.364-0.611-0.041-1.529-0.907-2.045c-0.764-0.458-1.627-0.454-2.075-0.029
		C24.44,18.254,24.999,18.462,25.515,19.242L25.515,19.242z M26.928,20.461c-0.19-0.03-0.45-0.104-0.728-0.271
		c-0.279-0.168-0.577-0.43-0.851-0.84c-0.546-0.832-1.137-0.954-1.406-0.961c0,0.003-0.007,0.008-0.008,0.01
		c-0.368,0.609,0.039,1.527,0.905,2.05C25.61,20.907,26.485,20.899,26.928,20.461L26.928,20.461z"/>
</g>
<g>
	<path d="M29.301,16.277c0.604-0.104,1.325,0.377,1.703,1.181c0.428,0.916,0.254,1.903-0.391,2.205
		c-0.006-0.001-0.006-0.001-0.006-0.001c-0.239-0.193-0.719-0.711-0.708-1.729C29.909,16.998,29.563,16.511,29.301,16.277
		L29.301,16.277z M29.938,19.103c-0.138-0.295-0.24-0.684-0.234-1.17c0.01-1-0.408-1.431-0.631-1.588
		c-0.005,0.002-0.009,0.003-0.013,0.006c-0.646,0.301-0.822,1.289-0.395,2.201c0.383,0.813,1.115,1.297,1.725,1.182
		C30.248,19.601,30.074,19.395,29.938,19.103L29.938,19.103z M32.782,18.064c-0.43,0.922-0.205,1.588-0.067,1.865
		c0.004,0.002,0.004,0.002,0.005,0c0.715-0.008,1.279-0.834,1.266-1.844c-0.011-0.887-0.469-1.624-1.064-1.78
		C33.064,16.626,33.177,17.215,32.782,18.064L32.782,18.064z M31.404,18.122c0.013,0.896,0.479,1.636,1.085,1.782
		c-0.075-0.181-0.149-0.438-0.15-0.762c-0.006-0.324,0.059-0.717,0.266-1.161c0.419-0.905,0.218-1.47,0.081-1.705
		c-0.006-0.002-0.011,0.001-0.013-0.001C31.958,16.283,31.392,17.111,31.404,18.122L31.404,18.122z M31.711,21.357
		c0.561,0.854,1.247,1.012,1.557,1.04l0.001-0.003c0.364-0.611-0.041-1.529-0.907-2.045c-0.764-0.459-1.627-0.454-2.075-0.029
		C30.637,20.369,31.195,20.577,31.711,21.357L31.711,21.357z M33.124,22.576c-0.19-0.03-0.45-0.104-0.728-0.271
		c-0.279-0.168-0.577-0.431-0.851-0.841c-0.546-0.831-1.137-0.953-1.406-0.961c0,0.004-0.007,0.008-0.008,0.01
		c-0.368,0.609,0.039,1.527,0.905,2.051C31.807,23.021,32.682,23.013,33.124,22.576L33.124,22.576z"/>
</g>
<g>
	<path d="M33.95,15.886c0.491-0.367,1.352-0.268,2.054,0.275c0.798,0.621,1.093,1.58,0.655,2.141
		c-0.005,0.003-0.005,0.003-0.005,0.003c-0.301-0.063-0.964-0.306-1.417-1.217C34.82,16.25,34.29,15.976,33.95,15.886L33.95,15.886z
		 M35.805,18.112c-0.257-0.2-0.525-0.5-0.741-0.935c-0.446-0.895-1.016-1.089-1.285-1.127c-0.003,0.004-0.007,0.006-0.008,0.011
		c-0.438,0.562-0.146,1.522,0.65,2.139c0.711,0.549,1.583,0.647,2.073,0.267C36.307,18.415,36.058,18.31,35.805,18.112
		L35.805,18.112z M37.863,15.893c0.037,1.016,0.54,1.507,0.789,1.691c0.005,0,0.005,0,0.005-0.002
		c0.633-0.332,0.759-1.325,0.287-2.218c-0.413-0.785-1.157-1.233-1.759-1.101C37.461,14.484,37.828,14.957,37.863,15.893
		L37.863,15.893z M36.662,16.57c0.42,0.792,1.172,1.239,1.778,1.094c-0.149-0.127-0.333-0.323-0.48-0.61
		c-0.153-0.286-0.274-0.665-0.293-1.156c-0.038-0.996-0.475-1.407-0.704-1.555c-0.006,0-0.009,0.006-0.011,0.005
		C36.319,14.682,36.191,15.677,36.662,16.57L36.662,16.57z M38.408,19.312c0.888,0.505,1.571,0.333,1.859,0.217v-0.002
		c0.046-0.71-0.732-1.343-1.738-1.408c-0.89-0.061-1.656,0.335-1.861,0.918C37.002,18.921,37.594,18.851,38.408,19.312
		L38.408,19.312z M40.222,19.754c-0.184,0.059-0.449,0.111-0.771,0.09c-0.325-0.022-0.71-0.12-1.14-0.361
		c-0.865-0.492-1.446-0.331-1.689-0.215c0.002,0.003-0.003,0.01-0.003,0.012c-0.05,0.71,0.73,1.342,1.74,1.414
		C39.251,20.75,40.026,20.345,40.222,19.754L40.222,19.754z"/>
</g>
<g>
	<path d="M39.147,15.886c0.491-0.367,1.352-0.268,2.054,0.275c0.798,0.621,1.093,1.58,0.655,2.142
		c-0.005,0.002-0.005,0.002-0.005,0.002c-0.301-0.063-0.964-0.306-1.417-1.217C40.018,16.25,39.487,15.976,39.147,15.886
		L39.147,15.886z M41.002,18.112c-0.257-0.2-0.525-0.499-0.741-0.935c-0.446-0.896-1.016-1.09-1.285-1.127
		c-0.003,0.004-0.007,0.006-0.008,0.011c-0.438,0.562-0.146,1.522,0.65,2.14c0.711,0.549,1.583,0.646,2.073,0.267
		C41.504,18.414,41.255,18.31,41.002,18.112L41.002,18.112z M43.061,15.893c0.037,1.016,0.54,1.508,0.789,1.691
		c0.005,0,0.005,0,0.005-0.002c0.633-0.332,0.759-1.325,0.287-2.219c-0.413-0.784-1.157-1.232-1.759-1.101
		C42.658,14.484,43.025,14.957,43.061,15.893L43.061,15.893z M41.859,16.57c0.42,0.793,1.172,1.238,1.778,1.094
		c-0.149-0.127-0.333-0.323-0.48-0.609c-0.153-0.287-0.274-0.666-0.293-1.156c-0.038-0.996-0.475-1.406-0.704-1.555
		c-0.006,0-0.009,0.006-0.011,0.006C41.517,14.682,41.389,15.677,41.859,16.57L41.859,16.57z M43.605,19.313
		c0.888,0.504,1.571,0.333,1.859,0.217v-0.003c0.046-0.71-0.732-1.343-1.738-1.407c-0.89-0.062-1.656,0.335-1.861,0.918
		C42.199,18.922,42.791,18.852,43.605,19.313L43.605,19.313z M45.419,19.754c-0.184,0.059-0.449,0.111-0.771,0.09
		c-0.325-0.022-0.71-0.12-1.14-0.361c-0.865-0.492-1.446-0.33-1.689-0.215c0.002,0.004-0.003,0.01-0.003,0.012
		c-0.05,0.711,0.73,1.343,1.74,1.414C44.448,20.75,45.224,20.346,45.419,19.754L45.419,19.754z"/>
</g>
<g>
	<path d="M26.951,10.397c0.596-0.146,1.349,0.281,1.784,1.054c0.493,0.883,0.391,1.881-0.231,2.228c-0.005,0-0.005,0-0.005,0
		c-0.253-0.175-0.769-0.657-0.831-1.673C27.61,11.072,27.229,10.612,26.951,10.397L26.951,10.397z M27.791,13.17
		c-0.159-0.284-0.289-0.664-0.318-1.149c-0.062-0.999-0.51-1.399-0.744-1.539c-0.004,0.002-0.008,0.003-0.011,0.007
		c-0.623,0.346-0.728,1.345-0.235,2.224c0.441,0.783,1.206,1.212,1.806,1.054C28.136,13.644,27.947,13.451,27.791,13.17
		L27.791,13.17z M30.552,11.929c-0.362,0.95-0.091,1.599,0.067,1.865c0.005,0.002,0.005,0.002,0.005,0
		c0.711-0.059,1.216-0.924,1.129-1.931c-0.075-0.883-0.585-1.586-1.19-1.699C30.73,10.475,30.884,11.054,30.552,11.929
		L30.552,11.929z M29.182,12.085c0.078,0.894,0.597,1.597,1.211,1.7c-0.088-0.175-0.181-0.427-0.205-0.749
		c-0.029-0.324,0.007-0.72,0.181-1.179c0.353-0.932,0.111-1.48-0.042-1.707c-0.005-0.002-0.01,0.002-0.012,0.001
		C29.602,10.212,29.097,11.079,29.182,12.085L29.182,12.085z M29.721,15.291c0.621,0.81,1.316,0.919,1.628,0.925l0.001-0.003
		c0.318-0.636-0.15-1.522-1.052-1.974c-0.795-0.403-1.656-0.337-2.072,0.12C28.578,14.383,29.15,14.549,29.721,15.291L29.721,15.291
		z M31.218,16.404c-0.191-0.018-0.457-0.073-0.745-0.218c-0.29-0.147-0.606-0.387-0.908-0.777c-0.605-0.791-1.203-0.868-1.472-0.856
		c0,0.004-0.006,0.008-0.007,0.01c-0.323,0.635,0.149,1.521,1.051,1.98C29.936,16.943,30.808,16.873,31.218,16.404L31.218,16.404z"
		/>
</g>
<g>
	<path d="M24.437,9.53c0.384,0.478,0.314,1.341-0.204,2.062c-0.594,0.819-1.542,1.146-2.117,0.729
		c-0.004-0.005-0.004-0.005-0.004-0.005c0.054-0.303,0.273-0.974,1.168-1.458C24.103,10.412,24.358,9.872,24.437,9.53L24.437,9.53z
		 M22.275,11.459c0.191-0.264,0.481-0.542,0.909-0.773c0.879-0.477,1.053-1.052,1.082-1.323c-0.004-0.002-0.006-0.006-0.012-0.007
		c-0.576-0.419-1.526-0.093-2.115,0.724c-0.524,0.729-0.593,1.604-0.196,2.081C21.99,11.972,22.087,11.719,22.275,11.459
		L22.275,11.459z M24.564,13.44c-1.015,0.072-1.488,0.592-1.663,0.847c0,0.005,0,0.005,0.002,0.005
		c0.354,0.621,1.351,0.713,2.227,0.211c0.771-0.44,1.193-1.199,1.04-1.795C25.958,12.99,25.499,13.374,24.564,13.44L24.564,13.44z
		 M23.846,12.263c-0.777,0.447-1.197,1.214-1.032,1.815c0.123-0.154,0.312-0.344,0.594-0.501c0.28-0.163,0.655-0.297,1.145-0.333
		c0.994-0.072,1.39-0.522,1.529-0.757c0-0.006-0.006-0.009-0.005-0.011C25.722,11.856,24.723,11.762,23.846,12.263L23.846,12.263z
		 M21.166,14.103c-0.475,0.905-0.279,1.582-0.153,1.866h0.003c0.711,0.021,1.316-0.778,1.347-1.786
		c0.03-0.891-0.392-1.644-0.981-1.829C21.508,12.684,21.599,13.273,21.166,14.103L21.166,14.103z M20.786,15.93
		c-0.065-0.182-0.126-0.445-0.116-0.768c0.012-0.326,0.096-0.713,0.321-1.151c0.463-0.881,0.281-1.457,0.157-1.696
		c-0.003,0.002-0.01-0.002-0.012-0.002c-0.712-0.025-1.316,0.776-1.354,1.788C19.758,14.994,20.188,15.755,20.786,15.93
		L20.786,15.93z"/>
</g>
<g>
	<path d="M35.402,9.776c0.438,0.431,0.468,1.296,0.037,2.072c-0.494,0.882-1.398,1.318-2.019,0.97
		c-0.004-0.004-0.004-0.004-0.004-0.004c0.018-0.307,0.158-0.999,0.99-1.583C35.173,10.691,35.365,10.125,35.402,9.776L35.402,9.776
		z M33.48,11.944c0.159-0.284,0.414-0.595,0.813-0.874c0.818-0.576,0.924-1.167,0.921-1.44c-0.004-0.002-0.007-0.006-0.012-0.006
		c-0.621-0.349-1.527,0.085-2.018,0.964c-0.437,0.786-0.402,1.663,0.048,2.09C33.257,12.486,33.323,12.224,33.48,11.944
		L33.48,11.944z M35.984,13.646c-0.999,0.189-1.409,0.761-1.554,1.035c0.001,0.005,0.001,0.005,0.003,0.004
		c0.424,0.576,1.424,0.551,2.235-0.05c0.714-0.526,1.046-1.329,0.824-1.904C37.316,13.036,36.904,13.47,35.984,13.646L35.984,13.646
		z M35.134,12.56c-0.721,0.534-1.049,1.345-0.814,1.922c0.104-0.167,0.27-0.377,0.531-0.566c0.26-0.195,0.616-0.372,1.099-0.463
		c0.979-0.188,1.319-0.681,1.431-0.93c-0.001-0.006-0.008-0.008-0.007-0.01C36.949,11.938,35.946,11.96,35.134,12.56L35.134,12.56z
		 M32.686,14.699c-0.366,0.953-0.094,1.604,0.065,1.871l0.002,0c0.709-0.061,1.218-0.926,1.131-1.93
		c-0.074-0.889-0.581-1.587-1.188-1.702C32.86,13.25,33.019,13.824,32.686,14.699L32.686,14.699z M32.521,16.558
		c-0.086-0.172-0.178-0.427-0.205-0.749c-0.026-0.325,0.012-0.72,0.186-1.181c0.356-0.929,0.109-1.479-0.041-1.703
		c-0.003,0.002-0.011-0.001-0.013-0.001c-0.709,0.058-1.217,0.924-1.137,1.933C31.39,15.748,31.907,16.454,32.521,16.558
		L32.521,16.558z"/>
</g>
<path d="M40.373,15.202c-0.446-0.423-0.493-1.288-0.075-2.071c0.477-0.891,1.373-1.345,2-1.007c0.004,0.004,0.004,0.004,0.004,0.004
	c-0.013,0.306-0.141,1.001-0.961,1.601C40.585,14.283,40.403,14.852,40.373,15.202L40.373,15.202z M42.254,12.999
	c-0.154,0.287-0.403,0.602-0.796,0.888c-0.808,0.591-0.902,1.184-0.894,1.456c0.004,0.002,0.006,0.007,0.011,0.005
	c0.628,0.338,1.526-0.113,2-1.001c0.421-0.793,0.371-1.67-0.087-2.089C42.468,12.453,42.406,12.715,42.254,12.999L42.254,12.999z
	 M39.121,13.044c-1.003,0.19-1.413,0.764-1.557,1.04l0.002,0.001c0.424,0.571,1.427,0.55,2.235-0.053
	c0.718-0.531,1.045-1.329,0.823-1.906C40.446,12.431,40.04,12.869,39.121,13.044L39.121,13.044z M37.454,13.883
	c0.101-0.165,0.27-0.376,0.529-0.569c0.263-0.193,0.618-0.368,1.103-0.463c0.977-0.185,1.315-0.685,1.426-0.93
	c-0.004,0-0.005-0.009-0.005-0.011c-0.422-0.573-1.427-0.55-2.242,0.049C37.547,12.495,37.219,13.305,37.454,13.883L37.454,13.883z"
	/>
<path d="M27.51,11.3c-0.446-0.423-0.493-1.288-0.075-2.071c0.477-0.891,1.373-1.345,2-1.007c0.004,0.004,0.004,0.004,0.004,0.004
	c-0.013,0.306-0.141,1.001-0.961,1.601C27.722,10.381,27.54,10.95,27.51,11.3L27.51,11.3z M29.391,9.097
	c-0.154,0.287-0.403,0.602-0.796,0.888c-0.808,0.591-0.902,1.184-0.894,1.456c0.004,0.002,0.006,0.007,0.011,0.005
	c0.628,0.338,1.526-0.113,2-1.001c0.421-0.793,0.371-1.67-0.087-2.089C29.604,8.551,29.543,8.813,29.391,9.097L29.391,9.097z
	 M26.258,9.143c-1.003,0.19-1.413,0.764-1.557,1.04l0.002,0.001c0.424,0.571,1.427,0.55,2.235-0.053
	c0.718-0.531,1.045-1.329,0.823-1.906C27.583,8.529,27.177,8.967,26.258,9.143L26.258,9.143z M24.591,9.981
	c0.101-0.165,0.27-0.376,0.529-0.569c0.263-0.193,0.618-0.368,1.103-0.463c0.977-0.185,1.315-0.685,1.426-0.93
	c-0.004,0-0.005-0.009-0.005-0.011c-0.422-0.573-1.427-0.55-2.242,0.049C24.684,8.593,24.355,9.403,24.591,9.981L24.591,9.981z"/>
<path d="M35.52,11.875c-0.446-0.423-0.493-1.288-0.075-2.071c0.477-0.891,1.373-1.345,2-1.007c0.004,0.004,0.004,0.004,0.004,0.004
	c-0.013,0.306-0.141,1.001-0.961,1.601C35.731,10.957,35.55,11.525,35.52,11.875L35.52,11.875z M37.4,9.672
	c-0.154,0.287-0.403,0.602-0.796,0.888c-0.808,0.591-0.902,1.184-0.894,1.456c0.004,0.003,0.006,0.007,0.011,0.005
	c0.628,0.339,1.526-0.112,2-1c0.421-0.793,0.371-1.67-0.087-2.089C37.614,9.126,37.553,9.389,37.4,9.672L37.4,9.672z M34.268,9.718
	c-1.003,0.19-1.413,0.764-1.557,1.04l0.002,0.001c0.424,0.571,1.427,0.55,2.235-0.053c0.718-0.531,1.045-1.329,0.823-1.906
	C35.593,9.104,35.187,9.542,34.268,9.718L34.268,9.718z M32.601,10.556c0.101-0.165,0.27-0.376,0.529-0.569
	c0.263-0.193,0.618-0.368,1.103-0.463c0.977-0.185,1.315-0.685,1.426-0.93c-0.004,0-0.005-0.009-0.005-0.011
	c-0.422-0.573-1.427-0.55-2.242,0.049C32.693,9.168,32.365,9.979,32.601,10.556L32.601,10.556z"/>
</svg>
