<?xml version="1.0" encoding="utf-8"?>
<!-- Generator: Adobe Illustrator 14.0.0, SVG Export Plug-In . SVG Version: 6.00 Build 43363)  -->
<!DOCTYPE svg PUBLIC "-//W3C//DTD SVG 1.1//EN" "http://www.w3.org/Graphics/SVG/1.1/DTD/svg11.dtd">
<svg version="1.1" id="Layer_1" xmlns="http://www.w3.org/2000/svg" xmlns:xlink="http://www.w3.org/1999/xlink" x="0px" y="0px"
	 width="60px" height="60px" viewBox="0 0 60 60" enable-background="new 0 0 60 60" xml:space="preserve">
<path d="M47.261,54.936c-0.262-0.962-4.867-18.375-5.521-20.782c-0.606-2.362-2.26-2.975-4.083-2.975h-6.041V28.99
	c11.211-1.05,14.166-9.407,14.166-9.407H13.498c0,0,2.476,8.794,14.426,9.451v2.144h-5.562c-1.825,0-3.477,0.612-4.085,2.975
	c-0.651,2.407-5.257,19.82-5.561,20.782c-0.348,1.225-0.217,2.802,2.259,2.802h1.738v1.355h26.288v-1.355h2.043
	C47.52,57.737,47.65,56.16,47.261,54.936L47.261,54.936z M30.009,33.41c6.04,0,10.949,4.943,10.949,11.07
	c0,6.08-4.909,11.025-10.949,11.025c-6.04,0-10.95-4.945-10.95-11.025C19.059,38.354,23.969,33.41,30.009,33.41L30.009,33.41z"/>
<path d="M23.708,39.622l-1.129-0.831l-0.304,0.481l1.086,0.787C23.492,39.885,23.578,39.755,23.708,39.622L23.708,39.622z"/>
<path d="M26.793,37.128l-0.607-1.225l-0.522,0.219l0.651,1.27C26.49,37.304,26.62,37.216,26.793,37.128L26.793,37.128z"/>
<path d="M22.057,44.48c0-0.089,0-0.133,0-0.22h-1.39v0.568h1.434C22.101,44.698,22.057,44.61,22.057,44.48L22.057,44.48z"/>
<path d="M38.612,40.236l-0.261-0.481l-1.434,0.787c0.087,0.13,0.174,0.305,0.26,0.481L38.612,40.236L38.612,40.236z"/>
<path d="M35.268,36.517l-0.479-0.308l-0.78,1.357c0.129,0.087,0.346,0.175,0.477,0.263L35.268,36.517L35.268,36.517z"/>
<path d="M30.444,36.473v-1.444h-0.564v1.444c0.043,0,0.086-0.044,0.129-0.044C30.14,36.429,30.27,36.473,30.444,36.473
	L30.444,36.473z"/>
<path d="M34.615,52.968l-0.738-1.533c-0.176,0.089-0.349,0.177-0.521,0.264l0.738,1.532L34.615,52.968L34.615,52.968z"/>
<path d="M38.048,49.86l-1.392-1.006c-0.129,0.175-0.259,0.307-0.346,0.438l1.39,1.049L38.048,49.86L38.048,49.86z"/>
<path d="M37.961,44.48c0,0.13-0.045,0.218-0.045,0.349h1.696v-0.568h-1.651C37.961,44.348,37.961,44.392,37.961,44.48L37.961,44.48z
	"/>
<path d="M29.879,52.443v1.661h0.564v-1.661c-0.174,0-0.304,0.043-0.435,0.043C29.966,52.486,29.922,52.443,29.879,52.443
	L29.879,52.443z"/>
<path d="M22.97,48.155l-1.26,0.699l0.261,0.525l1.304-0.7C23.144,48.505,23.057,48.33,22.97,48.155L22.97,48.155z"/>
<path d="M26.315,51.523c-0.173-0.089-0.347-0.175-0.478-0.264l-0.825,1.314l0.521,0.305L26.315,51.523L26.315,51.523z"/>
<path d="M26.664,50.079l0.435,0.263l2.736-4.681c0.131,0.043,0.217,0.086,0.348,0.086c0.956,0,1.737-0.787,1.737-1.749
	c0-1.006-0.781-1.794-1.737-1.794c-0.956,0-1.738,0.788-1.738,1.794c0,0.524,0.261,1.007,0.651,1.355L26.664,50.079L26.664,50.079z
	 M30.183,43.474c0.304,0,0.521,0.217,0.521,0.524c0,0.263-0.26,0.482-0.521,0.482s-0.478-0.22-0.478-0.482
	C29.705,43.69,29.922,43.474,30.183,43.474L30.183,43.474z"/>
</svg>
