<?xml version="1.0" encoding="utf-8"?>
<!-- Generator: Adobe Illustrator 14.0.0, SVG Export Plug-In . SVG Version: 6.00 Build 43363)  -->
<!DOCTYPE svg PUBLIC "-//W3C//DTD SVG 1.1//EN" "http://www.w3.org/Graphics/SVG/1.1/DTD/svg11.dtd">
<svg version="1.1" id="Layer_1" xmlns="http://www.w3.org/2000/svg" xmlns:xlink="http://www.w3.org/1999/xlink" x="0px" y="0px"
	 width="60px" height="60px" viewBox="0 0 60 60" enable-background="new 0 0 60 60" xml:space="preserve">
<path d="M47.261,54.936c-0.262-0.962-4.867-18.375-5.521-20.782c-0.606-2.362-2.26-2.975-4.083-2.975h-6.041V28.99
	c11.211-1.05,14.166-9.407,14.166-9.407H13.498c0,0,2.476,8.794,14.426,9.451v2.144h-5.562c-1.825,0-3.477,0.612-4.085,2.975
	c-0.651,2.407-5.257,19.82-5.561,20.782c-0.348,1.225-0.217,2.802,2.259,2.802h1.738v1.355h26.288v-1.355h2.043
	C47.52,57.737,47.65,56.16,47.261,54.936L47.261,54.936z M30.009,33.41c6.04,0,10.949,4.943,10.949,11.07
	c0,6.08-4.909,11.025-10.949,11.025c-6.04,0-10.95-4.945-10.95-11.025C19.059,38.354,23.969,33.41,30.009,33.41L30.009,33.41z"/>
<path d="M23.708,39.622l-1.129-0.831l-0.304,0.481l1.086,0.787C23.492,39.885,23.578,39.755,23.708,39.622L23.708,39.622z"/>
<path d="M26.793,37.128l-0.607-1.225l-0.522,0.219l0.651,1.27C26.49,37.304,26.62,37.216,26.793,37.128L26.793,37.128z"/>
<path d="M22.057,44.48c0-0.089,0-0.133,0-0.22h-1.39v0.568h1.434C22.101,44.698,22.057,44.61,22.057,44.48L22.057,44.48z"/>
<path d="M38.612,40.236l-0.261-0.481l-1.434,0.787c0.087,0.13,0.174,0.305,0.26,0.481L38.612,40.236L38.612,40.236z"/>
<path d="M35.268,36.517l-0.479-0.308l-0.78,1.357c0.129,0.087,0.346,0.175,0.477,0.263L35.268,36.517L35.268,36.517z"/>
<path d="M30.444,36.473v-1.444h-0.564v1.444c0.043,0,0.086-0.044,0.129-0.044C30.14,36.429,30.27,36.473,30.444,36.473
	L30.444,36.473z"/>
<path d="M34.615,52.968l-0.738-1.533c-0.176,0.089-0.349,0.177-0.521,0.264l0.738,1.532L34.615,52.968L34.615,52.968z"/>
<path d="M38.048,49.86l-1.392-1.006c-0.129,0.175-0.259,0.307-0.346,0.438l1.39,1.049L38.048,49.86L38.048,49.86z"/>
<path d="M37.961,44.48c0,0.13-0.045,0.218-0.045,0.349h1.696v-0.568h-1.651C37.961,44.348,37.961,44.392,37.961,44.48L37.961,44.48z
	"/>
<path d="M29.879,52.443v1.661h0.564v-1.661c-0.174,0-0.304,0.043-0.435,0.043C29.966,52.486,29.922,52.443,29.879,52.443
	L29.879,52.443z"/>
<path d="M22.97,48.155l-1.26,0.699l0.261,0.525l1.304-0.7C23.144,48.505,23.057,48.33,22.97,48.155L22.97,48.155z"/>
<path d="M26.315,51.523c-0.173-0.089-0.347-0.175-0.478-0.264l-0.825,1.314l0.521,0.305L26.315,51.523L26.315,51.523z"/>
<path d="M31.205,51.023l0.503-0.066l-0.795-5.363c0.128-0.05,0.223-0.069,0.325-0.152c0.745-0.598,0.861-1.701,0.259-2.45
	c-0.629-0.784-1.732-0.912-2.477-0.313c-0.746,0.599-0.862,1.702-0.232,2.487c0.328,0.409,0.833,0.621,1.355,0.649L31.205,51.023
	L31.205,51.023z M29.813,43.669c0.238-0.189,0.542-0.156,0.736,0.083c0.163,0.204,0.098,0.54-0.104,0.701
	c-0.203,0.164-0.511,0.129-0.676-0.076C29.577,44.138,29.611,43.832,29.813,43.669L29.813,43.669z"/>
<g>
	<path d="M15.102,17.43c0.235-0.566,1.027-0.918,1.908-0.809c1.003,0.126,1.744,0.802,1.655,1.508
		c-0.003,0.003-0.003,0.003-0.003,0.003c-0.292,0.101-0.984,0.229-1.839-0.324C16.037,17.301,15.44,17.334,15.102,17.43
		L15.102,17.43z M17.832,18.401c-0.324-0.041-0.706-0.162-1.115-0.427c-0.838-0.542-1.426-0.419-1.679-0.314
		c0,0.005-0.001,0.009-0.001,0.014c-0.089,0.707,0.651,1.383,1.65,1.508c0.892,0.112,1.691-0.249,1.92-0.826
		C18.418,18.405,18.151,18.441,17.832,18.401L17.832,18.401z M18.471,15.441c0.551,0.855,1.235,1.021,1.543,1.054
		c0.003-0.002,0.003-0.002,0.001-0.005c0.375-0.608-0.021-1.526-0.881-2.055c-0.756-0.463-1.624-0.47-2.074-0.05
		C17.408,14.436,17.965,14.654,18.471,15.441L18.471,15.441z M17.785,16.636c0.765,0.47,1.64,0.47,2.087,0.036
		c-0.193-0.034-0.451-0.108-0.725-0.28c-0.276-0.168-0.575-0.433-0.839-0.845c-0.542-0.838-1.126-0.969-1.398-0.979
		c-0.005,0.004-0.005,0.009-0.008,0.01C16.527,15.187,16.924,16.108,17.785,16.636L17.785,16.636z M20.684,18.105
		c1.021-0.017,1.521-0.514,1.71-0.759l-0.002-0.003c-0.322-0.634-1.313-0.782-2.213-0.325c-0.795,0.4-1.251,1.133-1.133,1.738
		C19.275,18.486,19.75,18.125,20.684,18.105L20.684,18.105z M22.469,17.562c-0.128,0.146-0.328,0.325-0.618,0.472
		c-0.291,0.146-0.672,0.258-1.164,0.269c-0.995,0.019-1.414,0.451-1.564,0.677c0.002,0.002,0.003,0.01,0.005,0.012
		c0.318,0.637,1.312,0.783,2.215,0.329C22.143,18.915,22.603,18.17,22.469,17.562L22.469,17.562z"/>
</g>
<g>
	<path d="M23.104,14.163c0.604-0.104,1.325,0.377,1.703,1.18c0.428,0.916,0.254,1.903-0.391,2.205
		c-0.006-0.001-0.006-0.001-0.006-0.001c-0.239-0.193-0.719-0.71-0.708-1.728C23.713,14.883,23.366,14.397,23.104,14.163
		L23.104,14.163z M23.742,16.988c-0.138-0.295-0.24-0.683-0.234-1.17c0.01-0.999-0.408-1.43-0.631-1.587
		c-0.005,0.002-0.009,0.003-0.013,0.006c-0.646,0.301-0.822,1.29-0.395,2.201c0.383,0.813,1.115,1.296,1.725,1.182
		C24.052,17.486,23.878,17.28,23.742,16.988L23.742,16.988z M26.586,15.949c-0.43,0.922-0.205,1.589-0.067,1.866
		c0.004,0.002,0.004,0.002,0.005-0.001c0.715-0.008,1.279-0.833,1.266-1.843c-0.011-0.887-0.469-1.625-1.064-1.781
		C26.868,14.512,26.98,15.101,26.586,15.949L26.586,15.949z M25.208,16.007c0.013,0.896,0.479,1.636,1.085,1.783
		c-0.075-0.181-0.149-0.439-0.15-0.762c-0.006-0.325,0.059-0.718,0.266-1.162c0.419-0.906,0.218-1.47,0.081-1.705
		c-0.006-0.002-0.011,0.001-0.013-0.001C25.762,14.168,25.195,14.996,25.208,16.007L25.208,16.007z M25.515,19.242
		c0.561,0.854,1.247,1.012,1.557,1.041l0.001-0.003c0.364-0.611-0.041-1.529-0.907-2.045c-0.764-0.458-1.627-0.454-2.075-0.029
		C24.44,18.254,24.999,18.462,25.515,19.242L25.515,19.242z M26.928,20.461c-0.19-0.03-0.45-0.104-0.728-0.271
		c-0.279-0.168-0.577-0.43-0.851-0.84c-0.546-0.832-1.137-0.954-1.406-0.961c0,0.003-0.007,0.008-0.008,0.01
		c-0.368,0.609,0.039,1.527,0.905,2.05C25.61,20.907,26.485,20.899,26.928,20.461L26.928,20.461z"/>
</g>
<g>
	<path d="M29.301,16.277c0.604-0.104,1.325,0.377,1.703,1.181c0.428,0.916,0.254,1.903-0.391,2.205
		c-0.006-0.001-0.006-0.001-0.006-0.001c-0.239-0.193-0.719-0.711-0.708-1.729C29.909,16.998,29.563,16.511,29.301,16.277
		L29.301,16.277z M29.938,19.103c-0.138-0.295-0.24-0.684-0.234-1.17c0.01-1-0.408-1.431-0.631-1.588
		c-0.005,0.002-0.009,0.003-0.013,0.006c-0.646,0.301-0.822,1.289-0.395,2.201c0.383,0.813,1.115,1.297,1.725,1.182
		C30.248,19.601,30.074,19.395,29.938,19.103L29.938,19.103z M32.782,18.064c-0.43,0.922-0.205,1.588-0.067,1.865
		c0.004,0.002,0.004,0.002,0.005,0c0.715-0.008,1.279-0.834,1.266-1.844c-0.011-0.887-0.469-1.624-1.064-1.78
		C33.064,16.626,33.177,17.215,32.782,18.064L32.782,18.064z M31.404,18.122c0.013,0.896,0.479,1.636,1.085,1.782
		c-0.075-0.181-0.149-0.438-0.15-0.762c-0.006-0.324,0.059-0.717,0.266-1.161c0.419-0.905,0.218-1.47,0.081-1.705
		c-0.006-0.002-0.011,0.001-0.013-0.001C31.958,16.283,31.392,17.111,31.404,18.122L31.404,18.122z M31.711,21.357
		c0.561,0.854,1.247,1.012,1.557,1.04l0.001-0.003c0.364-0.611-0.041-1.529-0.907-2.045c-0.764-0.459-1.627-0.454-2.075-0.029
		C30.637,20.369,31.195,20.577,31.711,21.357L31.711,21.357z M33.124,22.576c-0.19-0.03-0.45-0.104-0.728-0.271
		c-0.279-0.168-0.577-0.431-0.851-0.841c-0.546-0.831-1.137-0.953-1.406-0.961c0,0.004-0.007,0.008-0.008,0.01
		c-0.368,0.609,0.039,1.527,0.905,2.051C31.807,23.021,32.682,23.013,33.124,22.576L33.124,22.576z"/>
</g>
<g>
	<path d="M33.95,15.886c0.491-0.367,1.352-0.268,2.054,0.275c0.798,0.621,1.093,1.58,0.655,2.141
		c-0.005,0.003-0.005,0.003-0.005,0.003c-0.301-0.063-0.964-0.306-1.417-1.217C34.82,16.25,34.29,15.976,33.95,15.886L33.95,15.886z
		 M35.805,18.112c-0.257-0.2-0.525-0.5-0.741-0.935c-0.446-0.895-1.016-1.089-1.285-1.127c-0.003,0.004-0.007,0.006-0.008,0.011
		c-0.438,0.562-0.146,1.522,0.65,2.139c0.711,0.549,1.583,0.647,2.073,0.267C36.307,18.415,36.058,18.31,35.805,18.112
		L35.805,18.112z M37.863,15.893c0.037,1.016,0.54,1.507,0.789,1.691c0.005,0,0.005,0,0.005-0.002
		c0.633-0.332,0.759-1.325,0.287-2.218c-0.413-0.785-1.157-1.233-1.759-1.101C37.461,14.484,37.828,14.957,37.863,15.893
		L37.863,15.893z M36.662,16.57c0.42,0.792,1.172,1.239,1.778,1.094c-0.149-0.127-0.333-0.323-0.48-0.61
		c-0.153-0.286-0.274-0.665-0.293-1.156c-0.038-0.996-0.475-1.407-0.704-1.555c-0.006,0-0.009,0.006-0.011,0.005
		C36.319,14.682,36.191,15.677,36.662,16.57L36.662,16.57z M38.408,19.312c0.888,0.505,1.571,0.333,1.859,0.217v-0.002
		c0.046-0.71-0.732-1.343-1.738-1.408c-0.89-0.061-1.656,0.335-1.861,0.918C37.002,18.921,37.594,18.851,38.408,19.312
		L38.408,19.312z M40.222,19.754c-0.184,0.059-0.449,0.111-0.771,0.09c-0.325-0.022-0.71-0.12-1.14-0.361
		c-0.865-0.492-1.446-0.331-1.689-0.215c0.002,0.003-0.003,0.01-0.003,0.012c-0.05,0.71,0.73,1.342,1.74,1.414
		C39.251,20.75,40.026,20.345,40.222,19.754L40.222,19.754z"/>
</g>
<g>
	<path d="M39.147,15.886c0.491-0.367,1.352-0.268,2.054,0.275c0.798,0.621,1.093,1.58,0.655,2.142
		c-0.005,0.002-0.005,0.002-0.005,0.002c-0.301-0.063-0.964-0.306-1.417-1.217C40.018,16.25,39.487,15.976,39.147,15.886
		L39.147,15.886z M41.002,18.112c-0.257-0.2-0.525-0.499-0.741-0.935c-0.446-0.896-1.016-1.09-1.285-1.127
		c-0.003,0.004-0.007,0.006-0.008,0.011c-0.438,0.562-0.146,1.522,0.65,2.14c0.711,0.549,1.583,0.646,2.073,0.267
		C41.504,18.414,41.255,18.31,41.002,18.112L41.002,18.112z M43.061,15.893c0.037,1.016,0.54,1.508,0.789,1.691
		c0.005,0,0.005,0,0.005-0.002c0.633-0.332,0.759-1.325,0.287-2.219c-0.413-0.784-1.157-1.232-1.759-1.101
		C42.658,14.484,43.025,14.957,43.061,15.893L43.061,15.893z M41.859,16.57c0.42,0.793,1.172,1.238,1.778,1.094
		c-0.149-0.127-0.333-0.323-0.48-0.609c-0.153-0.287-0.274-0.666-0.293-1.156c-0.038-0.996-0.475-1.406-0.704-1.555
		c-0.006,0-0.009,0.006-0.011,0.006C41.517,14.682,41.389,15.677,41.859,16.57L41.859,16.57z M43.605,19.313
		c0.888,0.504,1.571,0.333,1.859,0.217v-0.003c0.046-0.71-0.732-1.343-1.738-1.407c-0.89-0.062-1.656,0.335-1.861,0.918
		C42.199,18.922,42.791,18.852,43.605,19.313L43.605,19.313z M45.419,19.754c-0.184,0.059-0.449,0.111-0.771,0.09
		c-0.325-0.022-0.71-0.12-1.14-0.361c-0.865-0.492-1.446-0.33-1.689-0.215c0.002,0.004-0.003,0.01-0.003,0.012
		c-0.05,0.711,0.73,1.343,1.74,1.414C44.448,20.75,45.224,20.346,45.419,19.754L45.419,19.754z"/>
</g>
<g>
	<path d="M26.951,10.397c0.596-0.146,1.349,0.281,1.784,1.054c0.493,0.883,0.391,1.881-0.231,2.228c-0.005,0-0.005,0-0.005,0
		c-0.253-0.175-0.769-0.657-0.831-1.673C27.61,11.072,27.229,10.612,26.951,10.397L26.951,10.397z M27.791,13.17
		c-0.159-0.284-0.289-0.664-0.318-1.149c-0.062-0.999-0.51-1.399-0.744-1.539c-0.004,0.002-0.008,0.003-0.011,0.007
		c-0.623,0.346-0.728,1.345-0.235,2.224c0.441,0.783,1.206,1.212,1.806,1.054C28.136,13.644,27.947,13.451,27.791,13.17
		L27.791,13.17z M30.552,11.929c-0.362,0.95-0.091,1.599,0.067,1.865c0.005,0.002,0.005,0.002,0.005,0
		c0.711-0.059,1.216-0.924,1.129-1.931c-0.075-0.883-0.585-1.586-1.19-1.699C30.73,10.475,30.884,11.054,30.552,11.929
		L30.552,11.929z M29.182,12.085c0.078,0.894,0.597,1.597,1.211,1.7c-0.088-0.175-0.181-0.427-0.205-0.749
		c-0.029-0.324,0.007-0.72,0.181-1.179c0.353-0.932,0.111-1.48-0.042-1.707c-0.005-0.002-0.01,0.002-0.012,0.001
		C29.602,10.212,29.097,11.079,29.182,12.085L29.182,12.085z M29.721,15.291c0.621,0.81,1.316,0.919,1.628,0.925l0.001-0.003
		c0.318-0.636-0.15-1.522-1.052-1.974c-0.795-0.403-1.656-0.337-2.072,0.12C28.578,14.383,29.15,14.549,29.721,15.291L29.721,15.291
		z M31.218,16.404c-0.191-0.018-0.457-0.073-0.745-0.218c-0.29-0.147-0.606-0.387-0.908-0.777c-0.605-0.791-1.203-0.868-1.472-0.856
		c0,0.004-0.006,0.008-0.007,0.01c-0.323,0.635,0.149,1.521,1.051,1.98C29.936,16.943,30.808,16.873,31.218,16.404L31.218,16.404z"
		/>
</g>
<g>
	<path d="M25.139,10.232c0.332,0.516,0.172,1.367-0.419,2.029c-0.676,0.752-1.654,0.979-2.182,0.502
		c-0.003-0.005-0.003-0.005-0.003-0.005c0.085-0.295,0.374-0.939,1.314-1.327C24.714,11.074,25.025,10.564,25.139,10.232
		L25.139,10.232z M22.787,11.924c0.218-0.242,0.536-0.489,0.985-0.673c0.924-0.382,1.157-0.936,1.215-1.203
		c-0.003-0.003-0.005-0.007-0.011-0.008c-0.529-0.477-1.508-0.253-2.18,0.498c-0.598,0.671-0.757,1.533-0.413,2.049
		C22.45,12.404,22.573,12.163,22.787,11.924L22.787,11.924z M24.856,14.134c-1.017-0.035-1.542,0.433-1.743,0.668
		c0,0.004,0,0.004,0.001,0.005c0.287,0.655,1.269,0.851,2.192,0.443c0.813-0.357,1.313-1.067,1.223-1.677
		C26.289,13.833,25.792,14.166,24.856,14.134L24.856,14.134z M24.265,12.888c-0.82,0.363-1.318,1.082-1.217,1.697
		c0.139-0.14,0.346-0.309,0.643-0.436c0.296-0.133,0.683-0.227,1.173-0.21c0.996,0.032,1.437-0.374,1.6-0.593
		c0-0.005-0.005-0.009-0.004-0.011C26.173,12.68,25.189,12.482,24.265,12.888L24.265,12.888z M21.407,14.437
		c-0.567,0.85-0.444,1.544-0.348,1.839l0.003,0c0.705,0.096,1.391-0.636,1.526-1.635c0.124-0.883-0.217-1.676-0.784-1.921
		C21.896,13.061,21.924,13.657,21.407,14.437L21.407,14.437z M20.837,16.214c-0.046-0.188-0.079-0.456-0.035-0.776
		c0.045-0.323,0.17-0.7,0.44-1.111c0.553-0.828,0.433-1.419,0.334-1.67c-0.003,0.002-0.01-0.003-0.012-0.003
		c-0.705-0.1-1.391,0.634-1.533,1.636C19.913,15.176,20.262,15.978,20.837,16.214L20.837,16.214z"/>
</g>
<g>
	<path d="M35.402,9.776c0.438,0.431,0.468,1.296,0.037,2.072c-0.494,0.882-1.398,1.318-2.019,0.97
		c-0.004-0.004-0.004-0.004-0.004-0.004c0.018-0.307,0.158-0.999,0.99-1.583C35.173,10.691,35.365,10.125,35.402,9.776L35.402,9.776
		z M33.48,11.944c0.159-0.284,0.414-0.595,0.813-0.874c0.818-0.576,0.924-1.167,0.921-1.44c-0.004-0.002-0.007-0.006-0.012-0.006
		c-0.621-0.349-1.527,0.085-2.018,0.964c-0.437,0.786-0.402,1.663,0.048,2.09C33.257,12.486,33.323,12.224,33.48,11.944
		L33.48,11.944z M35.984,13.646c-0.999,0.189-1.409,0.761-1.554,1.035c0.001,0.005,0.001,0.005,0.003,0.004
		c0.424,0.576,1.424,0.551,2.235-0.05c0.714-0.526,1.046-1.329,0.824-1.904C37.316,13.036,36.904,13.47,35.984,13.646L35.984,13.646
		z M35.134,12.56c-0.721,0.534-1.049,1.345-0.814,1.922c0.104-0.167,0.27-0.377,0.531-0.566c0.26-0.195,0.616-0.372,1.099-0.463
		c0.979-0.188,1.319-0.681,1.431-0.93c-0.001-0.006-0.008-0.008-0.007-0.01C36.949,11.938,35.946,11.96,35.134,12.56L35.134,12.56z
		 M32.686,14.699c-0.366,0.953-0.094,1.604,0.065,1.871l0.002,0c0.709-0.061,1.218-0.926,1.131-1.93
		c-0.074-0.889-0.581-1.587-1.188-1.702C32.86,13.25,33.019,13.824,32.686,14.699L32.686,14.699z M32.521,16.558
		c-0.086-0.172-0.178-0.427-0.205-0.749c-0.026-0.325,0.012-0.72,0.186-1.181c0.356-0.929,0.109-1.479-0.041-1.703
		c-0.003,0.002-0.011-0.001-0.013-0.001c-0.709,0.058-1.217,0.924-1.137,1.933C31.39,15.748,31.907,16.454,32.521,16.558
		L32.521,16.558z"/>
</g>
<path d="M40.373,15.202c-0.446-0.423-0.493-1.288-0.075-2.071c0.477-0.891,1.373-1.345,2-1.007c0.004,0.004,0.004,0.004,0.004,0.004
	c-0.013,0.306-0.141,1.001-0.961,1.601C40.585,14.283,40.403,14.852,40.373,15.202L40.373,15.202z M42.254,12.999
	c-0.154,0.287-0.403,0.602-0.796,0.888c-0.808,0.591-0.902,1.184-0.894,1.456c0.004,0.002,0.006,0.007,0.011,0.005
	c0.628,0.338,1.526-0.113,2-1.001c0.421-0.793,0.371-1.67-0.087-2.089C42.468,12.453,42.406,12.715,42.254,12.999L42.254,12.999z
	 M39.121,13.044c-1.003,0.19-1.413,0.764-1.557,1.04l0.002,0.001c0.424,0.571,1.427,0.55,2.235-0.053
	c0.718-0.531,1.045-1.329,0.823-1.906C40.446,12.431,40.04,12.869,39.121,13.044L39.121,13.044z M37.454,13.883
	c0.101-0.165,0.27-0.376,0.529-0.569c0.263-0.193,0.618-0.368,1.103-0.463c0.977-0.185,1.315-0.685,1.426-0.93
	c-0.004,0-0.005-0.009-0.005-0.011c-0.422-0.573-1.427-0.55-2.242,0.049C37.547,12.495,37.219,13.305,37.454,13.883L37.454,13.883z"
	/>
<path d="M25.095,6.378c-0.446-0.423-0.493-1.288-0.075-2.071c0.477-0.891,1.373-1.345,2-1.007c0.004,0.004,0.004,0.004,0.004,0.004
	c-0.013,0.306-0.141,1.001-0.961,1.601C25.307,5.459,25.125,6.028,25.095,6.378L25.095,6.378z M26.976,4.175
	c-0.154,0.287-0.403,0.602-0.796,0.888c-0.808,0.591-0.902,1.184-0.894,1.456c0.004,0.002,0.006,0.007,0.011,0.005
	c0.628,0.338,1.526-0.113,2-1.001c0.421-0.793,0.371-1.67-0.087-2.089C27.189,3.629,27.128,3.892,26.976,4.175L26.976,4.175z
	 M23.843,4.221c-1.003,0.19-1.413,0.764-1.557,1.04l0.002,0.001c0.424,0.571,1.427,0.55,2.235-0.053
	c0.718-0.531,1.045-1.329,0.823-1.906C25.168,3.607,24.762,4.045,23.843,4.221L23.843,4.221z M22.176,5.059
	c0.101-0.165,0.27-0.376,0.529-0.569c0.263-0.193,0.618-0.368,1.103-0.463c0.977-0.185,1.315-0.685,1.426-0.93
	c-0.004,0-0.005-0.009-0.005-0.011c-0.422-0.573-1.427-0.55-2.242,0.049C22.269,3.671,21.94,4.481,22.176,5.059L22.176,5.059z"/>
<path d="M35.52,11.875c-0.446-0.423-0.493-1.288-0.075-2.071c0.477-0.891,1.373-1.345,2-1.007c0.004,0.004,0.004,0.004,0.004,0.004
	c-0.013,0.306-0.141,1.001-0.961,1.601C35.731,10.957,35.55,11.525,35.52,11.875L35.52,11.875z M37.4,9.672
	c-0.154,0.287-0.403,0.602-0.796,0.888c-0.808,0.591-0.902,1.184-0.894,1.456c0.004,0.003,0.006,0.007,0.011,0.005
	c0.628,0.339,1.526-0.112,2-1c0.421-0.793,0.371-1.67-0.087-2.089C37.614,9.126,37.553,9.389,37.4,9.672L37.4,9.672z M34.268,9.718
	c-1.003,0.19-1.413,0.764-1.557,1.04l0.002,0.001c0.424,0.571,1.427,0.55,2.235-0.053c0.718-0.531,1.045-1.329,0.823-1.906
	C35.593,9.104,35.187,9.542,34.268,9.718L34.268,9.718z M32.601,10.556c0.101-0.165,0.27-0.376,0.529-0.569
	c0.263-0.193,0.618-0.368,1.103-0.463c0.977-0.185,1.315-0.685,1.426-0.93c-0.004,0-0.005-0.009-0.005-0.011
	c-0.422-0.573-1.427-0.55-2.242,0.049C32.693,9.168,32.365,9.979,32.601,10.556L32.601,10.556z"/>
<g>
	<path d="M31.974,8.21c0.124-0.601,0.834-1.096,1.72-1.157c1.009-0.064,1.866,0.458,1.911,1.168
		c-0.003,0.004-0.003,0.004-0.003,0.004c-0.267,0.154-0.924,0.412-1.867,0.03C32.866,7.906,32.287,8.051,31.974,8.21L31.974,8.21z
		 M34.838,8.646c-0.324,0.021-0.724-0.025-1.174-0.208c-0.928-0.375-1.483-0.142-1.71,0.009c0,0.005-0.001,0.009,0.002,0.013
		c0.044,0.711,0.9,1.237,1.905,1.17c0.896-0.062,1.614-0.567,1.729-1.177C35.414,8.539,35.158,8.625,34.838,8.646L34.838,8.646z
		 M34.906,5.619c0.701,0.736,1.404,0.771,1.712,0.743c0.004-0.004,0.004-0.004,0.003-0.005c0.253-0.667-0.311-1.496-1.257-1.851
		c-0.83-0.312-1.684-0.154-2.047,0.343C33.671,4.833,34.26,4.942,34.906,5.619L34.906,5.619z M34.457,6.923
		c0.84,0.315,1.698,0.149,2.056-0.361c-0.195,0.004-0.463-0.022-0.764-0.137c-0.305-0.113-0.646-0.317-0.985-0.671
		c-0.689-0.72-1.288-0.738-1.559-0.696c-0.004,0.003-0.003,0.01-0.004,0.011C32.947,5.737,33.513,6.567,34.457,6.923L34.457,6.923z
		 M37.583,7.817c0.998-0.212,1.396-0.793,1.534-1.071l-0.001-0.002c-0.438-0.562-1.438-0.52-2.235,0.1
		c-0.706,0.544-1.017,1.349-0.782,1.922C36.271,8.458,36.668,8.012,37.583,7.817L37.583,7.817z M39.232,6.945
		c-0.099,0.166-0.263,0.38-0.519,0.579c-0.257,0.198-0.61,0.381-1.092,0.485c-0.973,0.206-1.301,0.712-1.406,0.96
		C36.22,8.97,36.22,8.978,36.222,8.98c0.434,0.564,1.438,0.52,2.24-0.097C39.167,8.333,39.479,7.517,39.232,6.945L39.232,6.945z"/>
</g>
<g>
	<path d="M20.527,7.487c0.382,0.479,0.311,1.342-0.209,2.061c-0.596,0.817-1.545,1.143-2.119,0.723
		c-0.004-0.005-0.004-0.005-0.004-0.005c0.055-0.302,0.276-0.973,1.172-1.455C20.19,8.368,20.448,7.829,20.527,7.487L20.527,7.487z
		 M18.361,9.411c0.192-0.263,0.482-0.542,0.911-0.771c0.88-0.474,1.056-1.049,1.086-1.32c-0.004-0.002-0.006-0.006-0.012-0.007
		c-0.575-0.42-1.526-0.097-2.117,0.718c-0.527,0.728-0.598,1.602-0.202,2.08C18.074,9.922,18.172,9.669,18.361,9.411L18.361,9.411z
		 M20.645,11.398c-1.015,0.069-1.49,0.587-1.666,0.842c0,0.005,0,0.005,0.002,0.005c0.352,0.623,1.349,0.716,2.226,0.217
		c0.772-0.438,1.197-1.195,1.045-1.792C22.04,10.951,21.579,11.333,20.645,11.398L20.645,11.398z M19.929,10.219
		c-0.779,0.445-1.201,1.21-1.038,1.812c0.124-0.153,0.313-0.343,0.595-0.5c0.281-0.162,0.656-0.295,1.146-0.33
		c0.994-0.069,1.391-0.519,1.531-0.752c0-0.006-0.006-0.009-0.005-0.011C21.806,9.816,20.807,9.72,19.929,10.219L19.929,10.219z
		 M17.244,12.051c-0.477,0.904-0.283,1.582-0.158,1.866h0.003c0.711,0.023,1.319-0.775,1.352-1.782
		c0.032-0.892-0.388-1.645-0.977-1.832C17.59,10.633,17.679,11.222,17.244,12.051L17.244,12.051z M16.859,13.877
		c-0.065-0.182-0.125-0.446-0.114-0.768c0.012-0.327,0.097-0.713,0.324-1.151c0.465-0.88,0.285-1.456,0.162-1.695
		c-0.003,0.002-0.01-0.002-0.012-0.002c-0.712-0.027-1.319,0.772-1.358,1.783C15.834,12.939,16.262,13.702,16.859,13.877
		L16.859,13.877z"/>
</g>
<g>
	<path d="M46.968,11.813c0.185,0.585-0.195,1.364-0.939,1.847c-0.851,0.547-1.854,0.507-2.238-0.091
		c-0.001-0.006-0.001-0.006-0.001-0.006c0.159-0.262,0.608-0.807,1.618-0.933C46.336,12.514,46.771,12.104,46.968,11.813
		L46.968,11.813z M44.253,12.826c0.273-0.176,0.645-0.331,1.127-0.39c0.993-0.125,1.364-0.597,1.489-0.839
		c-0.002-0.004-0.003-0.008-0.008-0.011c-0.384-0.6-1.388-0.642-2.233-0.095c-0.755,0.489-1.136,1.279-0.939,1.868
		C43.802,13.199,43.982,12.999,44.253,12.826L44.253,12.826z M45.665,15.503c-0.971-0.302-1.601,0.01-1.857,0.184
		c-0.002,0.006-0.002,0.006,0.001,0.006c0.104,0.707,0.998,1.155,1.997,1.005c0.877-0.13,1.547-0.683,1.621-1.295
		C47.128,15.59,46.56,15.78,45.665,15.503L45.665,15.503z M45.424,14.146c-0.887,0.133-1.558,0.695-1.621,1.315
		c0.169-0.098,0.414-0.207,0.734-0.251c0.321-0.05,0.719-0.039,1.188,0.106c0.952,0.294,1.484,0.019,1.7-0.149
		c0.002-0.005-0.004-0.01-0.002-0.012C47.319,14.448,46.423,13.998,45.424,14.146L45.424,14.146z M42.258,14.885
		c-0.771,0.67-0.835,1.372-0.82,1.682h0.003c0.654,0.279,1.51-0.246,1.904-1.173c0.352-0.82,0.231-1.674-0.251-2.061
		C43.093,13.688,42.963,14.269,42.258,14.885L42.258,14.885z M41.241,16.449c0.005-0.193,0.043-0.46,0.17-0.757
		c0.129-0.299,0.349-0.63,0.719-0.957c0.751-0.653,0.791-1.254,0.763-1.522c-0.004,0-0.009-0.006-0.011-0.007
		c-0.653-0.282-1.509,0.245-1.911,1.174C40.621,15.203,40.747,16.069,41.241,16.449L41.241,16.449z"/>
</g>
<path d="M25.407,9.253c-0.446-0.423-0.493-1.288-0.075-2.071c0.477-0.891,1.373-1.345,2-1.007c0.004,0.004,0.004,0.004,0.004,0.004
	c-0.013,0.306-0.141,1.001-0.961,1.601C25.619,8.334,25.438,8.903,25.407,9.253L25.407,9.253z M27.288,7.049
	c-0.154,0.287-0.403,0.602-0.796,0.888c-0.808,0.591-0.902,1.184-0.894,1.456c0.004,0.002,0.006,0.007,0.011,0.005
	c0.628,0.338,1.526-0.113,2-1.001c0.421-0.793,0.371-1.67-0.087-2.089C27.502,6.504,27.44,6.766,27.288,7.049L27.288,7.049z
	 M24.155,7.095c-1.003,0.19-1.413,0.764-1.557,1.04l0.002,0.001c0.424,0.571,1.427,0.55,2.235-0.053
	c0.718-0.531,1.045-1.329,0.823-1.906C25.48,6.482,25.074,6.919,24.155,7.095L24.155,7.095z M22.488,7.934
	c0.101-0.165,0.27-0.376,0.529-0.569c0.263-0.193,0.618-0.368,1.103-0.463c0.977-0.185,1.315-0.685,1.426-0.93
	c-0.004,0-0.005-0.009-0.005-0.011c-0.422-0.573-1.427-0.55-2.242,0.049C22.581,6.545,22.253,7.356,22.488,7.934L22.488,7.934z"/>
<path d="M29.788,11.875c-0.446-0.423-0.493-1.288-0.075-2.071c0.477-0.891,1.374-1.345,2-1.007c0.004,0.004,0.004,0.004,0.004,0.004
	c-0.014,0.306-0.141,1.001-0.961,1.601C30,10.957,29.818,11.525,29.788,11.875L29.788,11.875z M31.668,9.672
	c-0.154,0.287-0.402,0.602-0.795,0.888c-0.808,0.591-0.902,1.184-0.894,1.456c0.004,0.003,0.006,0.007,0.011,0.005
	c0.628,0.339,1.526-0.112,2-1c0.42-0.793,0.371-1.67-0.088-2.089C31.883,9.126,31.82,9.389,31.668,9.672L31.668,9.672z
	 M28.536,9.718c-1.003,0.19-1.413,0.764-1.557,1.04l0.002,0.001c0.424,0.571,1.427,0.55,2.235-0.053
	c0.718-0.531,1.045-1.329,0.823-1.906C29.861,9.104,29.455,9.542,28.536,9.718L28.536,9.718z M26.869,10.556
	c0.101-0.165,0.27-0.376,0.529-0.569c0.263-0.193,0.618-0.368,1.103-0.463c0.977-0.185,1.315-0.685,1.426-0.93
	c-0.004,0-0.005-0.009-0.005-0.011c-0.422-0.573-1.427-0.55-2.242,0.049C26.961,9.168,26.633,9.979,26.869,10.556L26.869,10.556z"/>
<path d="M21.401,9.596c-0.053-0.613,0.486-1.291,1.319-1.599c0.948-0.35,1.919-0.094,2.164,0.575c0,0.006,0,0.006,0,0.006
	c-0.213,0.221-0.77,0.655-1.782,0.559C22.17,9.049,21.657,9.354,21.401,9.596L21.401,9.596z M24.271,9.197
	c-0.306,0.112-0.701,0.182-1.185,0.136c-0.996-0.095-1.461,0.286-1.635,0.495c0.001,0.004,0,0.009,0.004,0.011
	c0.245,0.67,1.216,0.929,2.16,0.58c0.842-0.314,1.386-1.002,1.322-1.62C24.793,8.931,24.573,9.086,24.271,9.197L24.271,9.197z
	 M21.898,7.151c-0.876-0.524-1.563-0.367-1.854-0.256l0.001,0.002c-0.063,0.708,0.702,1.358,1.706,1.445
	c0.889,0.08,1.664-0.299,1.881-0.878C23.296,7.572,22.702,7.629,21.898,7.151L21.898,7.151z M20.095,6.671
	c0.185-0.056,0.451-0.102,0.774-0.074c0.325,0.03,0.707,0.135,1.132,0.386c0.853,0.51,1.438,0.361,1.684,0.251
	c-0.002-0.003,0.002-0.01,0.004-0.012c0.065-0.708-0.702-1.358-1.709-1.452C21.086,5.694,20.303,6.083,20.095,6.671L20.095,6.671z"
	/>
<g>
	<path d="M27.448,8.967c0.124-0.601,0.834-1.096,1.72-1.157c1.009-0.064,1.866,0.458,1.911,1.168
		c-0.003,0.004-0.003,0.004-0.003,0.004c-0.267,0.154-0.924,0.412-1.867,0.03C28.341,8.663,27.762,8.809,27.448,8.967L27.448,8.967z
		 M30.313,9.403c-0.324,0.021-0.724-0.025-1.174-0.208c-0.928-0.375-1.483-0.142-1.71,0.009c0,0.005-0.001,0.009,0.002,0.013
		c0.044,0.711,0.9,1.237,1.905,1.17c0.896-0.062,1.614-0.567,1.729-1.177C30.889,9.296,30.633,9.383,30.313,9.403L30.313,9.403z
		 M30.381,6.376c0.701,0.736,1.404,0.771,1.712,0.743c0.004-0.004,0.004-0.004,0.003-0.005c0.253-0.667-0.311-1.496-1.257-1.851
		c-0.83-0.312-1.684-0.154-2.047,0.343C29.146,5.59,29.734,5.7,30.381,6.376L30.381,6.376z M29.932,7.681
		c0.84,0.315,1.698,0.149,2.056-0.361c-0.195,0.004-0.463-0.022-0.764-0.137c-0.305-0.113-0.646-0.317-0.985-0.671
		c-0.689-0.72-1.288-0.738-1.559-0.696c-0.004,0.003-0.003,0.01-0.004,0.011C28.422,6.495,28.987,7.324,29.932,7.681L29.932,7.681z
		 M33.058,8.574c0.998-0.212,1.396-0.793,1.534-1.071l-0.001-0.002c-0.438-0.562-1.438-0.52-2.235,0.1
		c-0.706,0.544-1.017,1.349-0.782,1.922C31.746,9.215,32.143,8.77,33.058,8.574L33.058,8.574z M34.707,7.702
		c-0.099,0.166-0.263,0.38-0.519,0.579c-0.257,0.198-0.61,0.381-1.092,0.485c-0.973,0.206-1.301,0.712-1.406,0.96
		c0.004,0.001,0.004,0.009,0.006,0.011c0.434,0.564,1.438,0.52,2.24-0.097C34.642,9.091,34.953,8.274,34.707,7.702L34.707,7.702z"/>
</g>
<g>
	<path d="M18.546,10.343c0.413,0.454,0.397,1.319-0.077,2.07c-0.542,0.854-1.469,1.24-2.068,0.858
		c-0.004-0.005-0.004-0.005-0.004-0.005c0.035-0.305,0.213-0.989,1.076-1.527C18.268,11.244,18.49,10.689,18.546,10.343
		L18.546,10.343z M16.509,12.402c0.174-0.274,0.446-0.571,0.859-0.827c0.848-0.53,0.986-1.115,0.999-1.388
		c-0.004-0.002-0.006-0.006-0.012-0.006c-0.601-0.383-1.529,0.001-2.066,0.853c-0.479,0.76-0.494,1.637-0.068,2.089
		C16.255,12.931,16.337,12.672,16.509,12.402L16.509,12.402z M18.916,14.239c-1.008,0.134-1.45,0.682-1.608,0.947
		c0,0.004,0,0.004,0.002,0.004c0.391,0.599,1.392,0.628,2.235,0.073c0.742-0.486,1.118-1.27,0.928-1.854
		C20.279,13.703,19.844,14.115,18.916,14.239L18.916,14.239z M18.125,13.107c-0.749,0.495-1.12,1.286-0.919,1.875
		c0.114-0.162,0.29-0.363,0.562-0.537c0.27-0.18,0.636-0.336,1.122-0.403c0.987-0.132,1.355-0.606,1.479-0.849
		c0-0.006-0.006-0.008-0.005-0.01C19.973,12.585,18.97,12.553,18.125,13.107L18.125,13.107z M15.564,15.108
		c-0.418,0.933-0.181,1.597-0.038,1.872h0.003c0.711-0.022,1.266-0.859,1.234-1.865c-0.025-0.893-0.493-1.617-1.092-1.765
		C15.818,13.671,15.944,14.254,15.564,15.108L15.564,15.108z M15.297,16.956c-0.077-0.177-0.153-0.437-0.163-0.759
		c-0.009-0.326,0.051-0.718,0.25-1.169c0.408-0.909,0.191-1.472,0.052-1.702c-0.003,0.002-0.01-0.002-0.012-0.002
		c-0.712,0.019-1.266,0.855-1.241,1.867C14.214,16.086,14.69,16.818,15.297,16.956L15.297,16.956z"/>
</g>
<path d="M27.885,4.403c-0.446-0.423-0.493-1.288-0.075-2.071c0.477-0.891,1.373-1.345,2-1.007c0.004,0.004,0.004,0.004,0.004,0.004
	c-0.013,0.306-0.141,1.001-0.961,1.601C28.097,3.484,27.915,4.053,27.885,4.403L27.885,4.403z M29.766,2.2
	c-0.154,0.287-0.403,0.602-0.796,0.888c-0.808,0.591-0.902,1.184-0.894,1.456c0.004,0.002,0.006,0.007,0.011,0.005
	c0.628,0.338,1.526-0.113,2-1.001c0.422-0.793,0.371-1.67-0.086-2.089C29.979,1.654,29.918,1.917,29.766,2.2L29.766,2.2z
	 M26.633,2.246c-1.003,0.19-1.413,0.764-1.557,1.04l0.002,0.001c0.424,0.571,1.427,0.55,2.235-0.053
	c0.718-0.531,1.045-1.329,0.823-1.906C27.958,1.632,27.552,2.07,26.633,2.246L26.633,2.246z M24.966,3.084
	c0.101-0.165,0.27-0.376,0.529-0.569c0.263-0.193,0.618-0.368,1.103-0.463c0.977-0.185,1.315-0.685,1.426-0.93
	c-0.004,0-0.005-0.009-0.005-0.011c-0.422-0.573-1.427-0.55-2.242,0.049C25.059,1.696,24.73,2.506,24.966,3.084L24.966,3.084z"/>
<g>
	<path d="M28.617,4.781c0.124-0.6,0.834-1.096,1.72-1.156c1.009-0.064,1.866,0.458,1.911,1.168
		c-0.003,0.004-0.003,0.004-0.003,0.004c-0.267,0.154-0.924,0.412-1.867,0.031C29.51,4.477,28.931,4.623,28.617,4.781L28.617,4.781z
		 M31.481,5.217c-0.324,0.021-0.724-0.024-1.174-0.208c-0.928-0.374-1.483-0.141-1.71,0.01c0,0.006-0.001,0.009,0.002,0.013
		c0.044,0.711,0.9,1.237,1.905,1.171c0.896-0.063,1.614-0.568,1.729-1.178C32.058,5.11,31.802,5.197,31.481,5.217L31.481,5.217z
		 M31.55,2.19c0.701,0.736,1.404,0.771,1.712,0.743c0.004-0.004,0.004-0.004,0.003-0.005c0.253-0.667-0.311-1.496-1.257-1.851
		c-0.83-0.312-1.684-0.154-2.047,0.343C30.314,1.404,30.903,1.514,31.55,2.19L31.55,2.19z M31.101,3.495
		c0.84,0.315,1.698,0.149,2.056-0.361c-0.195,0.004-0.463-0.022-0.764-0.137c-0.305-0.113-0.646-0.317-0.985-0.671
		c-0.689-0.72-1.288-0.738-1.559-0.696c-0.004,0.003-0.003,0.01-0.004,0.011C29.591,2.309,30.156,3.138,31.101,3.495L31.101,3.495z
		 M34.227,4.388c0.998-0.212,1.396-0.793,1.534-1.071L35.76,3.315c-0.438-0.562-1.438-0.52-2.235,0.1
		c-0.706,0.544-1.017,1.349-0.782,1.922C32.915,5.029,33.312,4.583,34.227,4.388L34.227,4.388z M35.876,3.516
		c-0.099,0.166-0.263,0.38-0.519,0.579c-0.257,0.198-0.61,0.381-1.092,0.485c-0.973,0.206-1.301,0.713-1.406,0.961
		c0.004,0.001,0.004,0.009,0.006,0.011c0.434,0.563,1.438,0.521,2.24-0.097C35.811,4.905,36.122,4.088,35.876,3.516L35.876,3.516z"
		/>
</g>
<g>
	<path d="M23.204,11.453c0.491-0.367,1.352-0.268,2.054,0.275c0.798,0.621,1.093,1.58,0.655,2.142
		c-0.005,0.002-0.005,0.002-0.005,0.002c-0.301-0.063-0.964-0.306-1.417-1.216C24.074,11.818,23.543,11.543,23.204,11.453
		L23.204,11.453z M25.058,13.68c-0.257-0.2-0.525-0.5-0.741-0.935c-0.446-0.895-1.016-1.089-1.285-1.127
		c-0.003,0.004-0.007,0.006-0.008,0.011c-0.438,0.562-0.146,1.522,0.65,2.14c0.711,0.549,1.583,0.646,2.073,0.267
		C25.56,13.981,25.311,13.877,25.058,13.68L25.058,13.68z M27.117,11.46c0.037,1.016,0.54,1.507,0.789,1.691
		c0.005,0,0.005,0,0.005-0.002c0.633-0.332,0.759-1.325,0.287-2.218c-0.413-0.785-1.157-1.233-1.759-1.101
		C26.714,10.051,27.082,10.524,27.117,11.46L27.117,11.46z M25.916,12.138c0.42,0.792,1.172,1.239,1.778,1.094
		c-0.149-0.127-0.333-0.323-0.48-0.61c-0.153-0.286-0.274-0.665-0.293-1.156c-0.038-0.996-0.475-1.407-0.704-1.555
		c-0.006,0-0.009,0.006-0.011,0.005C25.573,10.249,25.445,11.244,25.916,12.138L25.916,12.138z M27.662,14.88
		c0.888,0.504,1.571,0.333,1.859,0.217v-0.003c0.046-0.71-0.732-1.343-1.738-1.407c-0.89-0.062-1.656,0.335-1.861,0.918
		C26.255,14.489,26.847,14.419,27.662,14.88L27.662,14.88z M29.475,15.321c-0.184,0.059-0.449,0.111-0.771,0.09
		c-0.325-0.022-0.71-0.12-1.14-0.361c-0.865-0.492-1.446-0.33-1.689-0.215c0.002,0.004-0.003,0.01-0.003,0.012
		c-0.05,0.711,0.73,1.343,1.74,1.414C28.504,16.317,29.28,15.913,29.475,15.321L29.475,15.321z"/>
</g>
<g>
	<path d="M28.399,4.906c0.438,0.431,0.468,1.296,0.037,2.072c-0.494,0.882-1.398,1.318-2.019,0.97
		c-0.004-0.004-0.004-0.004-0.004-0.004c0.018-0.307,0.158-0.999,0.99-1.583C28.169,5.821,28.362,5.256,28.399,4.906L28.399,4.906z
		 M26.477,7.075c0.159-0.284,0.414-0.595,0.813-0.874c0.818-0.576,0.924-1.167,0.921-1.44c-0.004-0.002-0.007-0.006-0.012-0.006
		c-0.621-0.349-1.527,0.085-2.018,0.964c-0.437,0.786-0.402,1.663,0.048,2.09C26.253,7.616,26.32,7.354,26.477,7.075L26.477,7.075z
		 M28.981,8.776c-0.999,0.189-1.409,0.761-1.554,1.034c0.001,0.006,0.001,0.006,0.003,0.005c0.424,0.575,1.424,0.551,2.235-0.05
		c0.714-0.526,1.046-1.329,0.824-1.904C30.313,8.167,29.901,8.601,28.981,8.776L28.981,8.776z M28.13,7.69
		c-0.721,0.534-1.049,1.345-0.814,1.922c0.104-0.166,0.27-0.377,0.531-0.566c0.26-0.195,0.616-0.372,1.099-0.463
		c0.979-0.188,1.319-0.681,1.431-0.93c-0.001-0.006-0.008-0.008-0.007-0.01C29.946,7.068,28.943,7.091,28.13,7.69L28.13,7.69z
		 M25.682,9.83c-0.366,0.953-0.094,1.604,0.065,1.87l0.002-0.001c0.709-0.061,1.218-0.926,1.131-1.93
		c-0.074-0.889-0.581-1.587-1.188-1.702C25.857,8.38,26.015,8.955,25.682,9.83L25.682,9.83z M25.518,11.688
		c-0.086-0.173-0.178-0.427-0.205-0.749c-0.026-0.324,0.012-0.72,0.186-1.182c0.356-0.929,0.109-1.479-0.041-1.702
		c-0.003,0.002-0.011-0.001-0.013-0.001c-0.709,0.058-1.217,0.924-1.137,1.934C24.386,10.878,24.904,11.583,25.518,11.688
		L25.518,11.688z"/>
</g>
<g>
	<path d="M33.577,13.141c0.596-0.146,1.35,0.281,1.783,1.055c0.493,0.883,0.391,1.881-0.23,2.229
		c-0.006-0.001-0.006-0.001-0.006-0.001c-0.252-0.175-0.769-0.657-0.83-1.673C34.236,13.816,33.855,13.356,33.577,13.141
		L33.577,13.141z M34.417,15.914c-0.159-0.283-0.289-0.664-0.318-1.148c-0.062-0.999-0.511-1.4-0.744-1.539
		c-0.005,0.002-0.009,0.002-0.011,0.007c-0.623,0.346-0.729,1.345-0.236,2.224c0.441,0.783,1.207,1.213,1.806,1.054
		C34.762,16.389,34.573,16.195,34.417,15.914L34.417,15.914z M37.179,14.673c-0.362,0.95-0.092,1.599,0.066,1.865
		c0.005,0.002,0.005,0.002,0.006,0c0.711-0.06,1.216-0.925,1.129-1.931c-0.075-0.884-0.585-1.586-1.19-1.699
		C37.356,13.219,37.511,13.798,37.179,14.673L37.179,14.673z M35.808,14.829c0.078,0.894,0.597,1.597,1.211,1.7
		c-0.088-0.176-0.18-0.428-0.205-0.748c-0.029-0.324,0.008-0.721,0.182-1.18c0.354-0.932,0.111-1.479-0.043-1.706
		c-0.005-0.002-0.01,0.002-0.012,0.001C36.228,12.956,35.723,13.822,35.808,14.829L35.808,14.829z M36.347,18.035
		c0.621,0.81,1.316,0.918,1.628,0.924l0.001-0.002c0.318-0.637-0.15-1.522-1.053-1.975c-0.795-0.402-1.655-0.336-2.071,0.121
		C35.204,17.127,35.776,17.293,36.347,18.035L36.347,18.035z M37.844,19.148c-0.191-0.018-0.456-0.073-0.745-0.219
		c-0.289-0.146-0.606-0.387-0.908-0.776c-0.605-0.79-1.203-0.868-1.473-0.856c0.001,0.004-0.006,0.008-0.006,0.01
		c-0.323,0.635,0.148,1.521,1.051,1.98C36.562,19.688,37.434,19.617,37.844,19.148L37.844,19.148z"/>
</g>
<g>
	<path d="M50.82,8.107c0.331,0.516,0.173,1.366-0.419,2.028c-0.676,0.752-1.654,0.979-2.182,0.503
		c-0.004-0.006-0.004-0.006-0.004-0.006c0.086-0.295,0.375-0.939,1.314-1.327C50.396,8.949,50.707,8.439,50.82,8.107L50.82,8.107z
		 M48.469,9.798c0.218-0.242,0.536-0.488,0.985-0.673c0.924-0.382,1.157-0.937,1.215-1.202c-0.004-0.004-0.006-0.008-0.011-0.009
		c-0.529-0.477-1.509-0.253-2.18,0.497c-0.598,0.672-0.757,1.533-0.413,2.05C48.132,10.279,48.255,10.037,48.469,9.798L48.469,9.798
		z M50.538,12.009c-1.018-0.035-1.543,0.432-1.743,0.668c-0.001,0.004-0.001,0.004,0.001,0.004c0.287,0.655,1.27,0.852,2.193,0.443
		c0.813-0.356,1.313-1.066,1.223-1.676C51.971,11.707,51.474,12.041,50.538,12.009L50.538,12.009z M49.946,10.763
		c-0.82,0.363-1.318,1.081-1.217,1.696c0.139-0.14,0.346-0.31,0.643-0.437c0.297-0.133,0.684-0.227,1.174-0.21
		c0.996,0.032,1.437-0.374,1.6-0.593c0.001-0.006-0.004-0.01-0.004-0.011C51.854,10.554,50.871,10.357,49.946,10.763L49.946,10.763z
		 M47.089,12.311c-0.566,0.851-0.443,1.544-0.348,1.839l0.002,0.001c0.705,0.096,1.391-0.636,1.527-1.635
		c0.123-0.883-0.218-1.676-0.785-1.921C47.577,10.935,47.606,11.531,47.089,12.311L47.089,12.311z M46.519,14.089
		c-0.045-0.188-0.078-0.457-0.034-0.776c0.046-0.323,0.17-0.7,0.44-1.111c0.553-0.828,0.432-1.419,0.334-1.671
		c-0.004,0.002-0.01-0.003-0.012-0.003c-0.705-0.101-1.391,0.634-1.533,1.636C45.595,13.05,45.943,13.853,46.519,14.089
		L46.519,14.089z"/>
</g>
<path d="M43.115,10.677c-0.446-0.423-0.493-1.288-0.075-2.071c0.477-0.891,1.373-1.345,2-1.007c0.004,0.004,0.004,0.004,0.004,0.004
	c-0.013,0.306-0.141,1.001-0.961,1.601C43.327,9.758,43.146,10.327,43.115,10.677L43.115,10.677z M44.996,8.473
	C44.842,8.76,44.593,9.075,44.2,9.361c-0.808,0.591-0.902,1.184-0.894,1.456c0.004,0.002,0.006,0.007,0.011,0.005
	c0.628,0.338,1.526-0.113,2-1.001c0.421-0.793,0.371-1.67-0.087-2.089C45.21,7.928,45.148,8.19,44.996,8.473L44.996,8.473z
	 M41.863,8.519c-1.003,0.19-1.413,0.764-1.557,1.04l0.002,0.001c0.424,0.571,1.427,0.55,2.235-0.053
	c0.718-0.531,1.045-1.329,0.823-1.906C43.188,7.906,42.782,8.343,41.863,8.519L41.863,8.519z M40.196,9.357
	c0.101-0.165,0.27-0.376,0.529-0.569c0.263-0.193,0.618-0.368,1.103-0.463c0.977-0.185,1.315-0.685,1.426-0.93
	c-0.004,0-0.005-0.009-0.005-0.011c-0.422-0.573-1.427-0.55-2.242,0.049C40.289,7.969,39.961,8.78,40.196,9.357L40.196,9.357z"/>
<g>
	<path d="M24.653,11.812c0.56,0.249,0.894,1.048,0.764,1.926c-0.153,1-0.845,1.726-1.547,1.619
		c-0.006-0.003-0.006-0.003-0.006-0.003c-0.091-0.293-0.203-0.99,0.37-1.831C24.76,12.749,24.741,12.152,24.653,11.812
		L24.653,11.812z M23.617,14.518c0.049-0.322,0.179-0.703,0.453-1.104c0.563-0.826,0.454-1.417,0.355-1.672
		c-0.004,0-0.008-0.003-0.014-0.001c-0.704-0.108-1.399,0.617-1.548,1.613c-0.132,0.889,0.208,1.697,0.779,1.94
		C23.598,15.104,23.568,14.834,23.617,14.518L23.617,14.518z M26.56,15.229c-0.869,0.528-1.052,1.208-1.09,1.515
		c0.001,0.003,0.001,0.003,0.003,0.002c0.599,0.391,1.527,0.015,2.076-0.833c0.483-0.744,0.511-1.612,0.102-2.071
		C27.591,14.19,27.359,14.742,26.56,15.229L26.56,15.229z M25.381,14.512c-0.486,0.754-0.508,1.628-0.085,2.087
		c0.038-0.194,0.119-0.449,0.298-0.718c0.174-0.273,0.446-0.564,0.864-0.821c0.851-0.519,0.997-1.1,1.013-1.373
		c-0.002-0.005-0.009-0.005-0.009-0.007C26.861,13.29,25.93,13.665,25.381,14.512L25.381,14.512z M23.842,17.375
		c-0.006,1.022,0.478,1.535,0.719,1.728l0.002-0.001c0.642-0.307,0.813-1.296,0.379-2.204c-0.383-0.807-1.102-1.282-1.711-1.176
		C23.496,15.958,23.846,16.44,23.842,17.375L23.842,17.375z M24.342,19.173c-0.141-0.131-0.315-0.338-0.455-0.629
		c-0.14-0.295-0.242-0.677-0.242-1.17c0.007-0.996-0.418-1.424-0.638-1.579c-0.001,0.003-0.01,0.002-0.012,0.003
		c-0.645,0.304-0.814,1.293-0.384,2.208C23,18.814,23.731,19.292,24.342,19.173L24.342,19.173z"/>
</g>
<path d="M31.061,9.473c-0.446-0.423-0.493-1.288-0.075-2.071c0.477-0.891,1.374-1.345,2-1.007C32.99,6.4,32.99,6.4,32.99,6.4
	c-0.014,0.306-0.141,1.001-0.961,1.601C31.273,8.554,31.092,9.123,31.061,9.473L31.061,9.473z M32.941,7.27
	c-0.154,0.287-0.402,0.602-0.795,0.888c-0.809,0.591-0.902,1.184-0.895,1.456c0.004,0.002,0.006,0.007,0.012,0.005
	c0.627,0.338,1.525-0.113,2-1.001c0.42-0.793,0.371-1.67-0.088-2.089C33.156,6.724,33.094,6.986,32.941,7.27L32.941,7.27z
	 M29.809,7.315c-1.003,0.19-1.413,0.764-1.557,1.04l0.002,0.001c0.424,0.571,1.427,0.55,2.235-0.053
	c0.717-0.531,1.045-1.329,0.823-1.906C31.135,6.702,30.728,7.14,29.809,7.315L29.809,7.315z M28.142,8.154
	c0.101-0.165,0.27-0.376,0.529-0.569c0.263-0.193,0.618-0.368,1.103-0.463c0.977-0.185,1.316-0.685,1.425-0.93
	c-0.004,0-0.004-0.009-0.004-0.011c-0.422-0.573-1.427-0.55-2.243,0.049C28.235,6.766,27.907,7.576,28.142,8.154L28.142,8.154z"/>
<path d="M36.413,14.619c-0.445-0.423-0.492-1.287-0.074-2.07c0.477-0.891,1.373-1.345,2-1.007c0.004,0.004,0.004,0.004,0.004,0.004
	c-0.014,0.306-0.141,1.001-0.961,1.601C36.626,13.701,36.444,14.27,36.413,14.619L36.413,14.619z M38.294,12.416
	c-0.154,0.287-0.402,0.602-0.795,0.889c-0.809,0.59-0.902,1.184-0.895,1.455c0.004,0.004,0.006,0.008,0.012,0.006
	c0.627,0.338,1.525-0.113,2-1.001c0.42-0.794,0.371-1.67-0.088-2.089C38.509,11.871,38.446,12.133,38.294,12.416L38.294,12.416z
	 M35.161,12.462c-1.003,0.19-1.413,0.764-1.556,1.04h0.002c0.424,0.572,1.427,0.551,2.235-0.053c0.717-0.53,1.045-1.328,0.822-1.906
	C36.487,11.849,36.081,12.286,35.161,12.462L35.161,12.462z M33.494,13.301c0.102-0.165,0.27-0.377,0.529-0.57
	c0.264-0.193,0.618-0.368,1.103-0.463c0.977-0.185,1.316-0.685,1.426-0.93c-0.004,0-0.004-0.009-0.004-0.011
	c-0.422-0.573-1.428-0.55-2.243,0.049C33.588,11.912,33.26,12.723,33.494,13.301L33.494,13.301z"/>
<path d="M31.076,11.882c0.408-0.46,1.271-0.536,2.068-0.144c0.905,0.446,1.389,1.327,1.071,1.965
	c-0.004,0.004-0.004,0.004-0.004,0.004c-0.307-0.002-1.005-0.107-1.632-0.907C32.002,12.063,31.427,11.9,31.076,11.882
	L31.076,11.882z M33.342,13.689c-0.292-0.146-0.615-0.383-0.915-0.767c-0.617-0.788-1.213-0.862-1.484-0.845
	c-0.002,0.005-0.007,0.007-0.006,0.011c-0.316,0.64,0.165,1.522,1.067,1.965c0.808,0.396,1.682,0.316,2.086-0.155
	C33.894,13.884,33.63,13.832,33.342,13.689L33.342,13.689z M33.191,10.56c-0.224-0.997-0.811-1.388-1.091-1.521L32.1,9.04
	c-0.557,0.442-0.502,1.444,0.127,2.232c0.555,0.7,1.362,1,1.933,0.76C33.849,11.864,33.398,11.472,33.191,10.56L33.191,10.56z
	 M32.298,8.921c0.168,0.095,0.385,0.257,0.587,0.51c0.201,0.256,0.389,0.605,0.499,1.086c0.218,0.97,0.729,1.292,0.977,1.394
	c0.001-0.003,0.01-0.005,0.012-0.005c0.559-0.44,0.502-1.443-0.124-2.239C33.688,8.967,32.868,8.667,32.298,8.921L32.298,8.921z"/>
<g>
	<path d="M46.31,24.562c0.516,0.331,0.725,1.171,0.464,2.02c-0.302,0.964-1.096,1.578-1.776,1.365
		c-0.002-0.004-0.002-0.004-0.002-0.004c-0.049-0.304-0.053-1.009,0.641-1.754C46.273,25.503,46.346,24.911,46.31,24.562
		L46.31,24.562z M44.876,27.079c0.097-0.31,0.282-0.667,0.614-1.021c0.683-0.731,0.664-1.333,0.604-1.599
		c-0.005-0.002-0.009-0.004-0.014-0.003c-0.679-0.214-1.478,0.397-1.774,1.359c-0.264,0.859-0.049,1.711,0.479,2.035
		C44.77,27.656,44.78,27.386,44.876,27.079L44.876,27.079z M47.678,28.228c-0.938,0.391-1.224,1.035-1.307,1.332
		c0.003,0.005,0.003,0.005,0.004,0.004c0.532,0.476,1.508,0.246,2.178-0.51c0.589-0.664,0.747-1.517,0.413-2.035
		C48.854,27.356,48.541,27.867,47.678,28.228L47.678,28.228z M46.621,27.342c-0.596,0.67-0.747,1.532-0.399,2.048
		c0.066-0.183,0.186-0.424,0.401-0.664c0.215-0.244,0.527-0.49,0.979-0.679c0.92-0.386,1.15-0.939,1.208-1.207
		c-0.002-0.005-0.008-0.006-0.009-0.007C48.27,26.357,47.292,26.587,46.621,27.342L46.621,27.342z M44.667,29.94
		c-0.16,1.007,0.24,1.586,0.45,1.816h0.002c0.682-0.207,1.001-1.157,0.707-2.124c-0.254-0.854-0.895-1.432-1.514-1.418
		C44.538,28.485,44.812,29.015,44.667,29.94L44.667,29.94z M44.89,31.792c-0.119-0.151-0.261-0.382-0.354-0.692
		c-0.093-0.31-0.136-0.705-0.062-1.192c0.156-0.982-0.199-1.47-0.393-1.658c-0.003,0.003-0.01,0-0.013,0.002
		c-0.681,0.203-1.001,1.156-0.712,2.126C43.617,31.233,44.268,31.816,44.89,31.792L44.89,31.792z"/>
</g>
<path d="M34.511,7.147c-0.446-0.423-0.493-1.288-0.075-2.071c0.477-0.891,1.373-1.345,2-1.007c0.004,0.004,0.004,0.004,0.004,0.004
	c-0.013,0.306-0.141,1.001-0.961,1.601C34.723,6.229,34.541,6.797,34.511,7.147L34.511,7.147z M36.392,4.944
	c-0.154,0.287-0.403,0.602-0.796,0.888c-0.808,0.591-0.902,1.184-0.894,1.456c0.004,0.002,0.006,0.007,0.011,0.005
	c0.628,0.338,1.526-0.113,1.999-1.001c0.422-0.793,0.371-1.67-0.086-2.089C36.604,4.398,36.544,4.661,36.392,4.944L36.392,4.944z
	 M33.259,4.99c-1.003,0.19-1.413,0.764-1.557,1.04l0.002,0.001c0.424,0.571,1.427,0.55,2.235-0.053
	c0.718-0.531,1.045-1.329,0.823-1.906C34.584,4.376,34.178,4.814,33.259,4.99L33.259,4.99z M31.592,5.828
	c0.101-0.165,0.27-0.376,0.529-0.569c0.263-0.193,0.618-0.368,1.103-0.463c0.977-0.185,1.315-0.685,1.426-0.93
	c-0.004,0-0.005-0.009-0.005-0.011c-0.422-0.573-1.427-0.55-2.242,0.049C31.685,4.44,31.356,5.25,31.592,5.828L31.592,5.828z"/>
<g>
	<path d="M35.243,5.563c0.124-0.6,0.834-1.096,1.72-1.156c1.009-0.064,1.866,0.458,1.911,1.168
		c-0.003,0.004-0.003,0.004-0.003,0.004c-0.267,0.154-0.924,0.412-1.867,0.031C36.136,5.26,35.557,5.405,35.243,5.563L35.243,5.563z
		 M38.107,6c-0.324,0.021-0.724-0.024-1.174-0.208c-0.928-0.374-1.483-0.141-1.71,0.01c0,0.006-0.001,0.009,0.002,0.013
		c0.044,0.711,0.9,1.237,1.905,1.171c0.896-0.063,1.614-0.568,1.729-1.178C38.684,5.893,38.428,5.979,38.107,6L38.107,6z
		 M38.176,2.973c0.701,0.736,1.404,0.771,1.712,0.743c0.004-0.004,0.004-0.004,0.003-0.005c0.253-0.667-0.311-1.496-1.257-1.851
		c-0.83-0.312-1.684-0.154-2.047,0.343C36.94,2.187,37.529,2.296,38.176,2.973L38.176,2.973z M37.727,4.277
		c0.84,0.315,1.698,0.149,2.056-0.361c-0.195,0.004-0.463-0.022-0.764-0.137c-0.305-0.113-0.646-0.317-0.985-0.671
		c-0.689-0.72-1.288-0.738-1.559-0.696c-0.004,0.003-0.003,0.01-0.004,0.011C36.217,3.091,36.782,3.921,37.727,4.277L37.727,4.277z
		 M40.853,5.171c0.998-0.212,1.396-0.793,1.534-1.071l-0.001-0.002c-0.438-0.562-1.438-0.52-2.235,0.1
		c-0.706,0.544-1.017,1.349-0.782,1.922C39.541,5.812,39.938,5.366,40.853,5.171L40.853,5.171z M42.502,4.299
		c-0.099,0.166-0.263,0.38-0.519,0.579c-0.257,0.198-0.61,0.381-1.092,0.485c-0.973,0.206-1.301,0.713-1.406,0.961
		c0.004,0.001,0.004,0.009,0.006,0.011c0.434,0.563,1.438,0.521,2.24-0.097C42.437,5.688,42.748,4.871,42.502,4.299L42.502,4.299z"
		/>
</g>
<g>
	<path d="M42.637,17.608c0.492-0.367,1.353-0.268,2.054,0.275c0.799,0.621,1.094,1.58,0.656,2.142
		c-0.006,0.002-0.006,0.002-0.006,0.002c-0.301-0.063-0.963-0.306-1.416-1.216C43.508,17.973,42.977,17.698,42.637,17.608
		L42.637,17.608z M44.491,19.834c-0.256-0.2-0.525-0.5-0.741-0.936c-0.445-0.895-1.016-1.088-1.285-1.127
		c-0.002,0.004-0.006,0.006-0.008,0.012c-0.438,0.562-0.145,1.521,0.65,2.14c0.712,0.549,1.583,0.646,2.073,0.267
		C44.993,20.136,44.745,20.032,44.491,19.834L44.491,19.834z M46.55,17.615c0.037,1.017,0.541,1.507,0.789,1.691
		c0.006,0,0.006,0,0.006-0.003c0.632-0.332,0.759-1.324,0.286-2.217c-0.413-0.785-1.157-1.234-1.759-1.102
		C46.147,16.206,46.515,16.678,46.55,17.615L46.55,17.615z M45.349,18.292c0.42,0.792,1.172,1.239,1.779,1.094
		c-0.15-0.128-0.334-0.323-0.48-0.61c-0.154-0.285-0.275-0.664-0.293-1.155c-0.039-0.995-0.475-1.407-0.705-1.555
		c-0.006,0-0.008,0.006-0.01,0.005C45.007,16.404,44.878,17.399,45.349,18.292L45.349,18.292z M47.095,21.035
		c0.888,0.504,1.571,0.333,1.86,0.217v-0.003c0.045-0.71-0.732-1.343-1.739-1.407c-0.889-0.062-1.656,0.335-1.861,0.918
		C45.688,20.644,46.28,20.574,47.095,21.035L47.095,21.035z M48.908,21.476c-0.184,0.059-0.449,0.111-0.771,0.09
		c-0.324-0.022-0.71-0.12-1.14-0.361c-0.865-0.492-1.445-0.33-1.689-0.215c0.002,0.004-0.002,0.01-0.002,0.012
		c-0.051,0.711,0.73,1.343,1.74,1.414C47.938,22.472,48.713,22.068,48.908,21.476L48.908,21.476z"/>
</g>
<g>
	<path d="M41.342,7.475c0.438,0.431,0.468,1.296,0.037,2.072c-0.494,0.882-1.398,1.318-2.019,0.97
		c-0.004-0.004-0.004-0.004-0.004-0.004c0.018-0.307,0.158-0.999,0.99-1.583C41.112,8.39,41.305,7.825,41.342,7.475L41.342,7.475z
		 M39.42,9.644c0.159-0.284,0.414-0.595,0.813-0.874c0.818-0.576,0.924-1.167,0.921-1.44c-0.004-0.002-0.007-0.006-0.012-0.006
		c-0.621-0.349-1.527,0.085-2.018,0.964c-0.437,0.786-0.402,1.663,0.048,2.09C39.196,10.185,39.263,9.923,39.42,9.644L39.42,9.644z
		 M41.924,11.345c-0.999,0.189-1.409,0.761-1.554,1.034c0.001,0.006,0.001,0.006,0.003,0.005c0.424,0.575,1.424,0.551,2.235-0.05
		c0.714-0.526,1.046-1.329,0.824-1.904C43.256,10.735,42.844,11.169,41.924,11.345L41.924,11.345z M41.073,10.259
		c-0.721,0.534-1.049,1.345-0.814,1.922c0.104-0.166,0.27-0.377,0.531-0.566c0.26-0.195,0.616-0.372,1.099-0.463
		c0.979-0.188,1.319-0.681,1.431-0.93c-0.001-0.006-0.008-0.008-0.007-0.01C42.889,9.637,41.886,9.66,41.073,10.259L41.073,10.259z
		 M38.625,12.398c-0.366,0.953-0.094,1.604,0.065,1.87l0.002-0.001c0.709-0.061,1.218-0.926,1.131-1.93
		c-0.074-0.889-0.581-1.587-1.188-1.702C38.8,10.949,38.958,11.523,38.625,12.398L38.625,12.398z M38.461,14.257
		c-0.086-0.173-0.178-0.427-0.205-0.749c-0.026-0.324,0.012-0.72,0.186-1.182c0.356-0.929,0.109-1.479-0.041-1.702
		c-0.003,0.002-0.011-0.001-0.013-0.001c-0.709,0.058-1.217,0.924-1.137,1.934C37.329,13.447,37.847,14.152,38.461,14.257
		L38.461,14.257z"/>
</g>
<g>
	<path d="M50.047,33.39c0.516,0.33,0.725,1.171,0.464,2.02c-0.302,0.965-1.096,1.578-1.776,1.365
		c-0.002-0.004-0.002-0.004-0.002-0.004c-0.049-0.305-0.053-1.01,0.641-1.754C50.011,34.331,50.083,33.738,50.047,33.39
		L50.047,33.39z M48.613,35.906c0.097-0.31,0.282-0.667,0.614-1.021c0.683-0.731,0.664-1.333,0.604-1.599
		c-0.005-0.003-0.009-0.005-0.014-0.004c-0.679-0.213-1.478,0.398-1.774,1.359c-0.264,0.859-0.049,1.711,0.479,2.035
		C48.507,36.483,48.518,36.213,48.613,35.906L48.613,35.906z M50.694,43.355c-0.16,1.008,0.24,1.587,0.45,1.816h0.002
		c0.682-0.207,1.001-1.157,0.707-2.123c-0.254-0.854-0.895-1.433-1.514-1.418C50.565,41.901,50.839,42.432,50.694,43.355
		L50.694,43.355z M50.917,45.208c-0.119-0.151-0.261-0.382-0.354-0.692c-0.093-0.311-0.136-0.705-0.062-1.191
		c0.156-0.982-0.199-1.471-0.393-1.658c-0.003,0.004-0.01,0-0.013,0.002c-0.681,0.203-1.001,1.156-0.712,2.126
		C49.645,44.649,50.295,45.232,50.917,45.208L50.917,45.208z"/>
</g>
</svg>
