<?xml version="1.0" encoding="utf-8"?>
<!-- Generator: Adobe Illustrator 14.0.0, SVG Export Plug-In . SVG Version: 6.00 Build 43363)  -->
<!DOCTYPE svg PUBLIC "-//W3C//DTD SVG 1.1//EN" "http://www.w3.org/Graphics/SVG/1.1/DTD/svg11.dtd">
<svg version="1.1" id="Layer_1" xmlns="http://www.w3.org/2000/svg" xmlns:xlink="http://www.w3.org/1999/xlink" x="0px" y="0px"
	 width="60px" height="60px" viewBox="0 0 60 60" enable-background="new 0 0 60 60" xml:space="preserve">
<path d="M47.261,54.936c-0.262-0.962-4.867-18.375-5.521-20.782c-0.606-2.362-2.26-2.975-4.083-2.975h-6.041V28.99
	c11.211-1.05,14.166-9.407,14.166-9.407H13.498c0,0,2.476,8.794,14.426,9.451v2.144h-5.562c-1.825,0-3.477,0.612-4.085,2.975
	c-0.651,2.407-5.257,19.82-5.561,20.782c-0.348,1.225-0.217,2.802,2.259,2.802h1.738v1.355h26.288v-1.355h2.043
	C47.52,57.737,47.65,56.16,47.261,54.936L47.261,54.936z M30.009,33.41c6.04,0,10.949,4.943,10.949,11.07
	c0,6.08-4.909,11.025-10.949,11.025c-6.04,0-10.95-4.945-10.95-11.025C19.059,38.354,23.969,33.41,30.009,33.41L30.009,33.41z"/>
<path d="M23.708,39.622l-1.129-0.831l-0.304,0.481l1.086,0.787C23.492,39.885,23.578,39.755,23.708,39.622L23.708,39.622z"/>
<path d="M26.793,37.128l-0.607-1.225l-0.522,0.219l0.651,1.27C26.49,37.304,26.62,37.216,26.793,37.128L26.793,37.128z"/>
<path d="M22.057,44.48c0-0.089,0-0.133,0-0.22h-1.39v0.568h1.434C22.101,44.698,22.057,44.61,22.057,44.48L22.057,44.48z"/>
<path d="M38.612,40.236l-0.261-0.481l-1.434,0.787c0.087,0.13,0.174,0.305,0.26,0.481L38.612,40.236L38.612,40.236z"/>
<path d="M35.268,36.517l-0.479-0.308l-0.78,1.357c0.129,0.087,0.346,0.175,0.477,0.263L35.268,36.517L35.268,36.517z"/>
<path d="M30.444,36.473v-1.444h-0.564v1.444c0.043,0,0.086-0.044,0.129-0.044C30.14,36.429,30.27,36.473,30.444,36.473
	L30.444,36.473z"/>
<path d="M34.615,52.968l-0.738-1.533c-0.176,0.089-0.349,0.177-0.521,0.264l0.738,1.532L34.615,52.968L34.615,52.968z"/>
<path d="M38.048,49.86l-1.392-1.006c-0.129,0.175-0.259,0.307-0.346,0.438l1.39,1.049L38.048,49.86L38.048,49.86z"/>
<path d="M37.961,44.48c0,0.13-0.045,0.218-0.045,0.349h1.696v-0.568h-1.651C37.961,44.348,37.961,44.392,37.961,44.48L37.961,44.48z
	"/>
<path d="M29.879,52.443v1.661h0.564v-1.661c-0.174,0-0.304,0.043-0.435,0.043C29.966,52.486,29.922,52.443,29.879,52.443
	L29.879,52.443z"/>
<path d="M22.97,48.155l-1.26,0.699l0.261,0.525l1.304-0.7C23.144,48.505,23.057,48.33,22.97,48.155L22.97,48.155z"/>
<path d="M26.315,51.523c-0.173-0.089-0.347-0.175-0.478-0.264l-0.825,1.314l0.521,0.305L26.315,51.523L26.315,51.523z"/>
<path d="M23.392,41.869l-0.16,0.482l5.169,1.637c-0.013,0.137-0.036,0.23-0.006,0.358c0.21,0.932,1.15,1.521,2.089,1.308
	c0.981-0.222,1.578-1.157,1.367-2.09c-0.212-0.932-1.152-1.521-2.133-1.299c-0.512,0.115-0.925,0.477-1.179,0.934L23.392,41.869
	L23.392,41.869z M30.611,43.845c0.067,0.297-0.097,0.556-0.397,0.625c-0.256,0.057-0.528-0.148-0.585-0.402
	c-0.058-0.254,0.108-0.515,0.365-0.572C30.294,43.427,30.553,43.591,30.611,43.845L30.611,43.845z"/>
<g>
	<path d="M15.102,17.43c0.235-0.566,1.027-0.918,1.908-0.809c1.003,0.126,1.744,0.802,1.655,1.508
		c-0.003,0.003-0.003,0.003-0.003,0.003c-0.292,0.101-0.984,0.229-1.839-0.324C16.037,17.301,15.44,17.334,15.102,17.43
		L15.102,17.43z M17.832,18.401c-0.324-0.041-0.706-0.162-1.115-0.427c-0.838-0.542-1.426-0.419-1.679-0.314
		c0,0.005-0.001,0.009-0.001,0.014c-0.089,0.707,0.651,1.383,1.65,1.508c0.892,0.112,1.691-0.249,1.92-0.826
		C18.418,18.405,18.151,18.441,17.832,18.401L17.832,18.401z M18.471,15.441c0.551,0.855,1.235,1.021,1.543,1.054
		c0.003-0.002,0.003-0.002,0.001-0.005c0.375-0.608-0.021-1.526-0.881-2.055c-0.756-0.463-1.624-0.47-2.074-0.05
		C17.408,14.436,17.965,14.654,18.471,15.441L18.471,15.441z M17.785,16.636c0.765,0.47,1.64,0.47,2.087,0.036
		c-0.193-0.034-0.451-0.108-0.725-0.28c-0.276-0.168-0.575-0.433-0.839-0.845c-0.542-0.838-1.126-0.969-1.398-0.979
		c-0.005,0.004-0.005,0.009-0.008,0.01C16.527,15.187,16.924,16.108,17.785,16.636L17.785,16.636z M20.684,18.105
		c1.021-0.017,1.521-0.514,1.71-0.759l-0.002-0.003c-0.322-0.634-1.313-0.782-2.213-0.325c-0.795,0.4-1.251,1.133-1.133,1.738
		C19.275,18.486,19.75,18.125,20.684,18.105L20.684,18.105z M22.469,17.562c-0.128,0.146-0.328,0.325-0.618,0.472
		c-0.291,0.146-0.672,0.258-1.164,0.269c-0.995,0.019-1.414,0.451-1.564,0.677c0.002,0.002,0.003,0.01,0.005,0.012
		c0.318,0.637,1.312,0.783,2.215,0.329C22.143,18.915,22.603,18.17,22.469,17.562L22.469,17.562z"/>
</g>
<g>
	<path d="M23.104,14.163c0.604-0.104,1.325,0.377,1.703,1.18c0.428,0.916,0.254,1.903-0.391,2.205
		c-0.006-0.001-0.006-0.001-0.006-0.001c-0.239-0.193-0.719-0.71-0.708-1.728C23.713,14.883,23.366,14.397,23.104,14.163
		L23.104,14.163z M23.742,16.988c-0.138-0.295-0.24-0.683-0.234-1.17c0.01-0.999-0.408-1.43-0.631-1.587
		c-0.005,0.002-0.009,0.003-0.013,0.006c-0.646,0.301-0.822,1.29-0.395,2.201c0.383,0.813,1.115,1.296,1.725,1.182
		C24.052,17.486,23.878,17.28,23.742,16.988L23.742,16.988z M26.586,15.949c-0.43,0.922-0.205,1.589-0.067,1.866
		c0.004,0.002,0.004,0.002,0.005-0.001c0.715-0.008,1.279-0.833,1.266-1.843c-0.011-0.887-0.469-1.625-1.064-1.781
		C26.868,14.512,26.98,15.101,26.586,15.949L26.586,15.949z M25.208,16.007c0.013,0.896,0.479,1.636,1.085,1.783
		c-0.075-0.181-0.149-0.439-0.15-0.762c-0.006-0.325,0.059-0.718,0.266-1.162c0.419-0.906,0.218-1.47,0.081-1.705
		c-0.006-0.002-0.011,0.001-0.013-0.001C25.762,14.168,25.195,14.996,25.208,16.007L25.208,16.007z M25.515,19.242
		c0.561,0.854,1.247,1.012,1.557,1.041l0.001-0.003c0.364-0.611-0.041-1.529-0.907-2.045c-0.764-0.458-1.627-0.454-2.075-0.029
		C24.44,18.254,24.999,18.462,25.515,19.242L25.515,19.242z M26.928,20.461c-0.19-0.03-0.45-0.104-0.728-0.271
		c-0.279-0.168-0.577-0.43-0.851-0.84c-0.546-0.832-1.137-0.954-1.406-0.961c0,0.003-0.007,0.008-0.008,0.01
		c-0.368,0.609,0.039,1.527,0.905,2.05C25.61,20.907,26.485,20.899,26.928,20.461L26.928,20.461z"/>
</g>
<g>
	<path d="M29.301,16.277c0.604-0.104,1.325,0.377,1.703,1.181c0.428,0.916,0.254,1.903-0.391,2.205
		c-0.006-0.001-0.006-0.001-0.006-0.001c-0.239-0.193-0.719-0.711-0.708-1.729C29.909,16.998,29.563,16.511,29.301,16.277
		L29.301,16.277z M29.938,19.103c-0.138-0.295-0.24-0.684-0.234-1.17c0.01-1-0.408-1.431-0.631-1.588
		c-0.005,0.002-0.009,0.003-0.013,0.006c-0.646,0.301-0.822,1.289-0.395,2.201c0.383,0.813,1.115,1.297,1.725,1.182
		C30.248,19.601,30.074,19.395,29.938,19.103L29.938,19.103z M32.782,18.064c-0.43,0.922-0.205,1.588-0.067,1.865
		c0.004,0.002,0.004,0.002,0.005,0c0.715-0.008,1.279-0.834,1.266-1.844c-0.011-0.887-0.469-1.624-1.064-1.78
		C33.064,16.626,33.177,17.215,32.782,18.064L32.782,18.064z M31.404,18.122c0.013,0.896,0.479,1.636,1.085,1.782
		c-0.075-0.181-0.149-0.438-0.15-0.762c-0.006-0.324,0.059-0.717,0.266-1.161c0.419-0.905,0.218-1.47,0.081-1.705
		c-0.006-0.002-0.011,0.001-0.013-0.001C31.958,16.283,31.392,17.111,31.404,18.122L31.404,18.122z M31.711,21.357
		c0.561,0.854,1.247,1.012,1.557,1.04l0.001-0.003c0.364-0.611-0.041-1.529-0.907-2.045c-0.764-0.459-1.627-0.454-2.075-0.029
		C30.637,20.369,31.195,20.577,31.711,21.357L31.711,21.357z M33.124,22.576c-0.19-0.03-0.45-0.104-0.728-0.271
		c-0.279-0.168-0.577-0.431-0.851-0.841c-0.546-0.831-1.137-0.953-1.406-0.961c0,0.004-0.007,0.008-0.008,0.01
		c-0.368,0.609,0.039,1.527,0.905,2.051C31.807,23.021,32.682,23.013,33.124,22.576L33.124,22.576z"/>
</g>
</svg>
