<?xml version="1.0" encoding="utf-8"?>
<!-- Generator: Adobe Illustrator 14.0.0, SVG Export Plug-In . SVG Version: 6.00 Build 43363)  -->
<!DOCTYPE svg PUBLIC "-//W3C//DTD SVG 1.1//EN" "http://www.w3.org/Graphics/SVG/1.1/DTD/svg11.dtd">
<svg version="1.1" id="Layer_1" xmlns="http://www.w3.org/2000/svg" xmlns:xlink="http://www.w3.org/1999/xlink" x="0px" y="0px"
	 width="30px" height="30px" viewBox="0 0 30 30" enable-background="new 0 0 30 30" xml:space="preserve">
<g>
	<path fill="#3FD1C7" d="M23.699,1.199H6.3c-2.899,0-5.244,2.349-5.244,5.251v17.423c0,2.904,2.344,5.254,5.244,5.254h17.399
		c2.898,0,5.244-2.35,5.244-5.254V6.45C28.943,3.547,26.598,1.199,23.699,1.199L23.699,1.199z M21.909,12.073v0.433
		c0,4.51-3.455,9.762-9.749,9.762c-1.912,0-3.701-0.555-5.243-1.545c0.246,0,0.554,0.063,0.801,0.063
		c1.605,0,3.085-0.557,4.258-1.482c-1.482-0.063-2.777-1.051-3.208-2.412c0.247,0.063,0.431,0.063,0.678,0.063
		c0.308,0,0.617,0,0.864-0.121c-1.542-0.311-2.716-1.669-2.716-3.336v-0.063c0.433,0.248,0.988,0.433,1.543,0.433
		c-0.925-0.618-1.543-1.668-1.543-2.842c0-0.618,0.187-1.236,0.494-1.73c1.666,2.101,4.195,3.461,7.034,3.584
		c-0.062-0.248-0.062-0.496-0.062-0.804c0-1.854,1.542-3.398,3.455-3.398c0.926,0,1.851,0.433,2.469,1.051
		c0.803-0.123,1.541-0.433,2.16-0.804c-0.247,0.804-0.803,1.483-1.481,1.916c0.679-0.124,1.355-0.309,1.975-0.556
		C23.145,10.961,22.588,11.58,21.909,12.073L21.909,12.073z"/>
</g>
</svg>
